<svg xmlns="http://www.w3.org/2000/svg" xmlns:xlink="http://www.w3.org/1999/xlink" width="1000" height="700" version="1.1">
<style type="text/css">
.l0{
  fill: #000000;
  stroke: #000000;
  stroke-linecap:round;
  stroke-linejoin:round;
  stroke-width: 0.585957;
}
.l1{
  fill: #00ccee;
  stroke: #00ccee;
  stroke-linecap:round;
  stroke-linejoin:round;
  stroke-width: 0.585957;
}
.l2{
  fill: #4f4f4f; fill-opacity: 0.2;
  stroke: #4f4f4f;
  stroke-linecap:round;
  stroke-linejoin:round;
  stroke-width: 0.585957;
}
.l3{
  fill: #cccccc; fill-opacity: 0.5;
  stroke: #cccccc;
  stroke-linecap:round;
  stroke-linejoin:round;
  stroke-width: 0.585957;
}
.l4{
  fill: #88dd00;
  stroke: #88dd00;
  stroke-linecap:round;
  stroke-linejoin:round;
  stroke-width: 0.585957;
}
.l5{
  fill: #bb2200;
  stroke: #bb2200;
  stroke-linecap:round;
  stroke-linejoin:round;
  stroke-width: 0.585957;
}
.l6{
  fill: #00ccee; fill-opacity: 0.5;
  stroke: #00ccee;
  stroke-linecap:round;
  stroke-linejoin:round;
  stroke-width: 0.585957;
}
.l7{
  fill: #ff0000; fill-opacity: 0.5;
  stroke: #ff0000;
  stroke-linecap:round;
  stroke-linejoin:round;
  stroke-width: 0.585957;
}
.l8{
  fill: #ffff00; fill-opacity: 0.5;
  stroke: #ffff00;
  stroke-linecap:round;
  stroke-linejoin:round;
  stroke-width: 0.585957;
}
.l9{
  fill: #ffffff; fill-opacity: 0.5;
  stroke: #ffffff;
  stroke-linecap:round;
  stroke-linejoin:round;
  stroke-width: 0.585957;
}
.l10{
  fill: #ff00ff;
  stroke: #ff00ff;
  stroke-linecap:round;
  stroke-linejoin:round;
  stroke-width: 0.585957;
}
.l11{
  fill: #00ff00; fill-opacity: 0.5;
  stroke: #00ff00;
  stroke-linecap:round;
  stroke-linejoin:round;
  stroke-width: 0.585957;
}
.l12{
  fill: #0000ff; fill-opacity: 0.5;
  stroke: #0000ff;
  stroke-linecap:round;
  stroke-linejoin:round;
  stroke-width: 0.585957;
}
.l13{
  fill: #aaaa00; fill-opacity: 0.5;
  stroke: #aaaa00;
  stroke-linecap:round;
  stroke-linejoin:round;
  stroke-width: 0.585957;
}
.l14{
  fill: #aaccaa; fill-opacity: 0.2;
  stroke: #aaccaa;
  stroke-linecap:round;
  stroke-linejoin:round;
  stroke-width: 0.585957;
}
.l15{
  fill: #ff7777; fill-opacity: 0.5;
  stroke: #ff7777;
  stroke-linecap:round;
  stroke-linejoin:round;
  stroke-width: 0.585957;
}
.l16{
  fill: #bfff81; fill-opacity: 0.5;
  stroke: #bfff81;
  stroke-linecap:round;
  stroke-linejoin:round;
  stroke-width: 0.585957;
}
.l17{
  fill: #00ffcc; fill-opacity: 0.2;
  stroke: #00ffcc;
  stroke-linecap:round;
  stroke-linejoin:round;
  stroke-width: 0.585957;
}
.l18{
  fill: #ce0097; fill-opacity: 0.5;
  stroke: #ce0097;
  stroke-linecap:round;
  stroke-linejoin:round;
  stroke-width: 0.585957;
}
.l19{
  fill: #d2d46b; fill-opacity: 0.2;
  stroke: #d2d46b;
  stroke-linecap:round;
  stroke-linejoin:round;
  stroke-width: 0.585957;
}
.l20{
  fill: #ef6158; fill-opacity: 0.2;
  stroke: #ef6158;
  stroke-linecap:round;
  stroke-linejoin:round;
  stroke-width: 0.585957;
}
.l21{
  fill: #fdb200; fill-opacity: 0.2;
  stroke: #fdb200;
  stroke-linecap:round;
  stroke-linejoin:round;
  stroke-width: 0.585957;
}
text {font-family: Sans-Serif;}
</style>
<rect class="l0" x="0" y="0" width="1000" height="700"/>
<text fill="#00ccee"  xml:space="preserve" font-size="9.31021" transform="translate(85.1888, 240.923)" >ui_in[7:0]</text>
<text fill="#00ccee"  xml:space="preserve" font-size="9.31021" transform="translate(307.979, 273.476)" >uo_out[7:0]</text>
<text fill="#00ccee"  xml:space="preserve" font-size="9.31021" transform="translate(307.894, 250.929)" >VGND</text>
<text fill="#00ccee"  xml:space="preserve" font-size="9.31021" transform="translate(307.894, 240.078)" >VDPWR</text>
<text fill="#00ccee"  xml:space="preserve" font-size="9.31021" transform="translate(58.0422, 185.823)" >VAPWR</text>
<text fill="#00ccee"  xml:space="preserve" font-size="9.31021" transform="translate(79.1888, 251.774)" >uio_in[7:0]</text>
<text fill="#00ccee"  xml:space="preserve" font-size="9.31021" transform="translate(953.532, 516.78)" >ua[7:0]</text>
<text fill="#00ccee"  xml:space="preserve" font-size="9.31021" transform="translate(307.979, 284.327)" >uio_out[7:0]</text>
<text fill="#00ccee"  xml:space="preserve" font-size="9.31021" transform="translate(307.979, 295.178)" >uio_oe[7:0]</text>
<text fill="#00ccee"  xml:space="preserve" font-size="9.31021" transform="translate(108.189, 262.625)" >ena</text>
<text fill="#00ccee"  xml:space="preserve" font-size="9.31021" transform="translate(113.189, 273.476)" >clk</text>
<text fill="#00ccee"  xml:space="preserve" font-size="9.31021" transform="translate(103.189, 284.327)" >rst_n</text>
<text fill="#00ccee"  xml:space="preserve" font-size="7.61744" transform="translate(506.069, 278.122)" >VGND</text>
<text fill="#00ccee"  xml:space="preserve" font-size="7.61744" transform="translate(506.069, 386.633)" >VGND</text>
<text fill="#00ccee"  xml:space="preserve" font-size="7.61744" transform="translate(803.058, 392.058)" >VGND</text>
<text fill="#00ccee"  xml:space="preserve" font-size="7.61744" transform="translate(815.324, 283.548)" >VGND</text>
<text fill="#00ccee"  xml:space="preserve" font-size="7.61744" transform="translate(473.941, 321.527)" >VDPWR</text>
<text fill="#00ccee"  xml:space="preserve" font-size="7.61744" transform="translate(473.941, 213.016)" >VDPWR</text>
<text fill="#00ccee"  xml:space="preserve" font-size="7.61744" transform="translate(529.197, 213.016)" >VAPWR</text>
<text fill="#00ccee"  xml:space="preserve" font-size="7.61744" transform="translate(803.058, 326.952)" >VAPWR</text>
<path class="l1" d="M725.744 199.238L731.17 193.813"/>
<text fill="#00ccee"  xml:space="preserve" font-size="7.61744" transform="translate(739.443, 192.456) rotate(270)" >D[0]</text>
<path class="l1" d="M725.744 210.089L731.17 204.664"/>
<text fill="#00ccee"  xml:space="preserve" font-size="7.61744" transform="translate(739.443, 203.307) rotate(270)" >D[1]</text>
<path class="l1" d="M725.744 220.94L731.17 215.515"/>
<text fill="#00ccee"  xml:space="preserve" font-size="7.61744" transform="translate(739.443, 214.158) rotate(270)" >D[2]</text>
<path class="l1" d="M725.744 231.791L731.17 226.366"/>
<text fill="#00ccee"  xml:space="preserve" font-size="7.61744" transform="translate(739.443, 225.009) rotate(270)" >D[3]</text>
<path class="l1" d="M725.744 242.642L731.17 237.217"/>
<text fill="#00ccee"  xml:space="preserve" font-size="7.61744" transform="translate(739.443, 235.86) rotate(270)" >D[4]</text>
<path class="l1" d="M725.744 253.493L731.17 248.068"/>
<text fill="#00ccee"  xml:space="preserve" font-size="7.61744" transform="translate(739.443, 246.711) rotate(270)" >D[5]</text>
<path class="l1" d="M725.744 264.344L731.17 258.919"/>
<text fill="#00ccee"  xml:space="preserve" font-size="7.61744" transform="translate(739.443, 257.563) rotate(270)" >D[6]</text>
<path class="l1" d="M725.744 275.196L731.17 269.77"/>
<text fill="#00ccee"  xml:space="preserve" font-size="7.61744" transform="translate(739.443, 268.414) rotate(270)" >D[7]</text>
<text fill="#00ccee"  xml:space="preserve" font-size="7.61744" transform="translate(678.271, 245.569)" >D[7:0]</text>
<text fill="#00ccee"  xml:space="preserve" font-size="7.61744" transform="translate(103.165, 180.463)" >VAPWR</text>
<text fill="#00ccee"  xml:space="preserve" font-size="7.61744" transform="translate(835.611, 337.803)" >ua[0]</text>
<text fill="#00ccee"  xml:space="preserve" font-size="7.61744" transform="translate(922.409, 299.824)" >ua[1]</text>
<text fill="#00ccee"  xml:space="preserve" font-size="7.61744" transform="translate(921.835, 451.739)" >ua[7:2]</text>
<text fill="#00ccee"  xml:space="preserve" font-size="7.61744" transform="translate(916.409, 511.42)" >ua[7:0]</text>
<text fill="#00ccee"  xml:space="preserve" font-size="7.61744" transform="translate(217.367, 354.08)" >port_ms_i</text>
<text fill="#00ccee"  xml:space="preserve" font-size="7.61744" transform="translate(355.707, 245.569)" >port_ms_o[7:0]</text>
<text fill="#00ccee"  xml:space="preserve" font-size="7.61744" transform="translate(545.877, 245.569)" >port_ms_o_ana[7:0]</text>
<text fill="#cccccc"  xml:space="preserve" font-size="8.46383" transform="translate(151.723, 312.179)" >dig_ctrl_top</text>
<text fill="#cccccc"  xml:space="preserve" font-size="5.64255" transform="translate(288.989, 230.404)" >x1</text>
<text fill="#cccccc"  xml:space="preserve" font-size="5.64255" transform="translate(264.564, 240.17)" >VDPWR</text>
<text fill="#cccccc"  xml:space="preserve" font-size="5.64255" transform="translate(147.925, 240.17)" >ui_in[7:0]</text>
<text fill="#cccccc"  xml:space="preserve" font-size="5.64255" transform="translate(254.564, 272.723)" >uo_out[7:0]</text>
<text fill="#cccccc"  xml:space="preserve" font-size="5.64255" transform="translate(268.564, 251.021)" >VGND</text>
<text fill="#cccccc"  xml:space="preserve" font-size="5.64255" transform="translate(147.925, 251.021)" >uio_in[7:0]</text>
<text fill="#cccccc"  xml:space="preserve" font-size="5.64255" transform="translate(253.564, 283.574)" >uio_out[7:0]</text>
<text fill="#cccccc"  xml:space="preserve" font-size="5.64255" transform="translate(255.564, 294.425)" >uio_oe[7:0]</text>
<text fill="#cccccc"  xml:space="preserve" font-size="5.64255" transform="translate(147.925, 261.872)" >ena</text>
<text fill="#cccccc"  xml:space="preserve" font-size="5.64255" transform="translate(147.925, 272.723)" >clk</text>
<text fill="#cccccc"  xml:space="preserve" font-size="5.64255" transform="translate(147.925, 283.574)" >rst_n</text>
<text fill="#cccccc"  xml:space="preserve" font-size="5.64255" transform="translate(147.925, 294.425)" >port_ms_i</text>
<text fill="#cccccc"  xml:space="preserve" font-size="5.64255" transform="translate(244.564, 305.276)" >port_ms_o[7:0]</text>
<text fill="#cccccc"  xml:space="preserve" font-size="5.64255" transform="translate(269.564, 316.127)" >clk_o</text>
<text fill="#88dd00"  xml:space="preserve" font-size="4.23191" transform="translate(951.008, 455.707)" >NC</text>
<text fill="#88dd00"  xml:space="preserve" font-size="4.23191" transform="translate(738.63, 374.324)" >NC</text>
<text fill="#cccccc"  xml:space="preserve" font-size="11.2851" transform="translate(229.308, 516.027)" >         /home/leo/Projects/tt08-aicd-playground/xschem/tt_um_tt08_aicd_playground.sch</text>
<text fill="#cccccc"  xml:space="preserve" font-size="11.2851" transform="translate(229.308, 499.751)" >Leo Moser</text>
<text fill="#cccccc"  xml:space="preserve" font-size="11.2851" transform="translate(551.213, 499.751)" >2024-08-21  15:42:06</text>
<text fill="#cccccc"  xml:space="preserve" font-size="28.2128" transform="translate(104.521, 515.121)" >SCHEM</text>
<text fill="#cccccc"  xml:space="preserve" font-size="8.46383" transform="translate(536.122, 279.625)" >sky130_leo_ip__levelshifter_up</text>
<text fill="#cccccc"  xml:space="preserve" font-size="5.64255" transform="translate(571.117, 219.553)" >x2[7:0]</text>
<text fill="#cccccc"  xml:space="preserve" font-size="5.64255" transform="translate(548.117, 234.744)" >VDDOUT</text>
<text fill="#cccccc"  xml:space="preserve" font-size="5.64255" transform="translate(494.436, 234.744)" >VDDIN</text>
<text fill="#cccccc"  xml:space="preserve" font-size="5.64255" transform="translate(559.117, 251.021)" >OUT</text>
<text fill="#cccccc"  xml:space="preserve" font-size="5.64255" transform="translate(489.734, 251.021)" >IN</text>
<text fill="#cccccc"  xml:space="preserve" font-size="5.64255" transform="translate(522.287, 265.166)" >VGND</text>
<text fill="#cccccc"  xml:space="preserve" font-size="8.46383" transform="translate(391.729, 388.136)" >sky130_leo_ip__levelshifter_down</text>
<text fill="#cccccc"  xml:space="preserve" font-size="5.64255" transform="translate(483.734, 328.064)" >x3</text>
<text fill="#cccccc"  xml:space="preserve" font-size="5.64255" transform="translate(489.734, 343.255)" >VDDOUT</text>
<text fill="#cccccc"  xml:space="preserve" font-size="5.64255" transform="translate(489.734, 359.532)" >OUT</text>
<text fill="#cccccc"  xml:space="preserve" font-size="5.64255" transform="translate(565.117, 359.532)" >IN</text>
<text fill="#cccccc"  xml:space="preserve" font-size="5.64255" transform="translate(523.564, 373.677)" >VGND</text>
<text fill="#cccccc"  xml:space="preserve" font-size="8.46383" transform="translate(787.595, 230.796)" >sky130_leo_ip__rdac_8bit</text>
<text fill="#cccccc"  xml:space="preserve" font-size="5.64255" transform="translate(912.925, 187)" >x2</text>
<text fill="#cccccc"  xml:space="preserve" font-size="5.64255" transform="translate(771.861, 196.766)" >D0</text>
<text fill="#cccccc"  xml:space="preserve" font-size="5.64255" transform="translate(895.5, 234.744)" >OUT</text>
<text fill="#cccccc"  xml:space="preserve" font-size="5.64255" transform="translate(771.861, 207.617)" >D1</text>
<text fill="#cccccc"  xml:space="preserve" font-size="5.64255" transform="translate(771.861, 218.468)" >D2</text>
<text fill="#cccccc"  xml:space="preserve" font-size="5.64255" transform="translate(771.861, 229.319)" >D3</text>
<text fill="#cccccc"  xml:space="preserve" font-size="5.64255" transform="translate(771.861, 240.17)" >D4</text>
<text fill="#cccccc"  xml:space="preserve" font-size="5.64255" transform="translate(771.861, 251.021)" >D5</text>
<text fill="#cccccc"  xml:space="preserve" font-size="5.64255" transform="translate(771.861, 261.872)" >D6</text>
<text fill="#cccccc"  xml:space="preserve" font-size="5.64255" transform="translate(771.861, 272.723)" >D7</text>
<text fill="#cccccc"  xml:space="preserve" font-size="5.64255" transform="translate(831.542, 270.592)" >VGND</text>
<text fill="#cccccc"  xml:space="preserve" font-size="5.64255" transform="translate(636.223, 245.596)" >A</text>
<text fill="#cccccc"  xml:space="preserve" font-size="5.64255" transform="translate(670.202, 245.596)" >X</text>
<text fill="#cccccc"  xml:space="preserve" font-size="5.64255" transform="translate(656.569, 261.33)" >x1[7:0]</text>
<text fill="#cccccc"  xml:space="preserve" font-size="5.64255" transform="translate(651.143, 239.627)" >buf_4</text>
<text fill="#cccccc"  xml:space="preserve" font-size="8.46383" transform="translate(706.978, 366.434)" >sky130_leo_ip__comparator</text>
<text fill="#cccccc"  xml:space="preserve" font-size="5.64255" transform="translate(802.84, 355.191)" >x4</text>
<text fill="#cccccc"  xml:space="preserve" font-size="5.64255" transform="translate(788.138, 337.83)" >vdd</text>
<text fill="#cccccc"  xml:space="preserve" font-size="5.64255" transform="translate(809.691, 343.255)" >in_p</text>
<text fill="#cccccc"  xml:space="preserve" font-size="5.64255" transform="translate(750.159, 348.681)" >out_p</text>
<text fill="#cccccc"  xml:space="preserve" font-size="5.64255" transform="translate(809.691, 381.234)" >in_n</text>
<text fill="#cccccc"  xml:space="preserve" font-size="5.64255" transform="translate(788.138, 392.085)" >vss</text>
<text fill="#cccccc"  xml:space="preserve" font-size="5.64255" transform="translate(761.01, 392.085)" >clk</text>
<text fill="#cccccc"  xml:space="preserve" font-size="5.64255" transform="translate(750.159, 370.383)" >out_n</text>
<path class="l4" d="M145.213 231.791L286.276 231.791"/>
<path class="l4" d="M145.213 324.025L286.276 324.025"/>
<path class="l4" d="M145.213 231.791L145.213 307.749"/>
<path class="l4" d="M286.276 231.791L286.276 307.749"/>
<path class="l4" d="M145.213 307.749L145.213 324.025"/>
<path class="l4" d="M286.276 307.749L286.276 324.025"/>
<path class="l4" d="M286.276 242.642L286.276 318.6"/>
<path class="l4" d="M134.362 237.217L145.213 237.217"/>
<path class="l4" d="M134.362 248.068L145.213 248.068"/>
<path class="l4" d="M134.362 258.919L145.213 258.919"/>
<path class="l4" d="M134.362 269.77L145.213 269.77"/>
<path class="l4" d="M134.362 280.621L145.213 280.621"/>
<path class="l4" d="M134.362 291.472L145.213 291.472"/>
<path class="l4" d="M286.276 269.77L297.128 269.77"/>
<path class="l4" d="M286.276 280.621L297.128 280.621"/>
<path class="l4" d="M286.276 291.472L297.128 291.472"/>
<path class="l4" d="M286.276 302.323L297.128 302.323"/>
<path class="l4" d="M286.276 313.174L297.128 313.174"/>
<path class="l4" d="M948.191 454.238L950.226 454.238"/>
<path class="l4" d="M745.412 372.855L747.447 372.855"/>
<path class="l4" d="M573.83 248.068L584.681 248.068"/>
<path class="l4" d="M476.17 248.068L487.021 248.068"/>
<path class="l4" d="M487.021 226.366L573.83 226.366"/>
<path class="l4" d="M487.021 269.77L573.83 269.77"/>
<path class="l4" d="M530.425 231.791L530.425 237.217"/>
<path class="l4" d="M530.425 242.642L530.425 248.068"/>
<path class="l4" d="M530.425 253.493L530.425 258.919"/>
<path class="l4" d="M487.021 226.366L487.021 269.77"/>
<path class="l4" d="M573.83 226.366L573.83 269.77"/>
<path class="l4" d="M476.17 356.578L487.021 356.578"/>
<path class="l4" d="M573.83 356.578L584.681 356.578"/>
<path class="l4" d="M487.021 334.876L573.83 334.876"/>
<path class="l4" d="M487.021 378.281L573.83 378.281"/>
<path class="l4" d="M530.425 340.302L530.425 345.727"/>
<path class="l4" d="M530.425 351.153L530.425 356.578"/>
<path class="l4" d="M530.425 362.004L530.425 367.43"/>
<path class="l4" d="M573.83 334.876L573.83 378.281"/>
<path class="l4" d="M487.021 334.876L487.021 378.281"/>
<path class="l4" d="M769.149 188.387L910.212 188.387"/>
<path class="l4" d="M769.149 275.196L910.212 275.196"/>
<path class="l4" d="M769.149 188.387L769.149 275.196"/>
<path class="l4" d="M910.212 188.387L910.212 275.196"/>
<path class="l4" d="M758.298 193.813L769.149 193.813"/>
<path class="l4" d="M910.212 231.791L921.063 231.791"/>
<path class="l4" d="M758.298 204.664L769.149 204.664"/>
<path class="l4" d="M758.298 215.515L769.149 215.515"/>
<path class="l4" d="M758.298 226.366L769.149 226.366"/>
<path class="l4" d="M758.298 237.217L769.149 237.217"/>
<path class="l4" d="M758.298 248.068L769.149 248.068"/>
<path class="l4" d="M758.298 258.919L769.149 258.919"/>
<path class="l4" d="M758.298 269.77L769.149 269.77"/>
<path class="l4" d="M644.361 237.217L644.361 258.919"/>
<path class="l4" d="M644.361 237.217L666.064 248.068"/>
<path class="l4" d="M644.361 258.919L666.064 248.068"/>
<path class="l4" d="M666.064 248.068L676.915 248.068"/>
<path class="l4" d="M633.51 248.068L644.361 248.068"/>
<path class="l4" d="M823.404 340.302L834.255 340.302"/>
<path class="l4" d="M823.404 383.706L834.255 383.706"/>
<path class="l4" d="M758.298 362.004L823.404 329.451"/>
<path class="l4" d="M823.404 329.451L823.404 394.557"/>
<path class="l4" d="M758.298 362.004L823.404 394.557"/>
<path class="l4" d="M801.702 329.451L801.702 340.302"/>
<path class="l4" d="M801.702 383.706L801.702 394.557"/>
<path class="l4" d="M780 372.855L780 394.557"/>
<path class="l4" d="M747.447 351.153L780 351.153"/>
<path class="l4" d="M747.447 372.855L780 372.855"/>
<path class="l5" d="M131.649 237.217L134.362 237.217"/>
<path class="l5" d="M131.649 237.217L129.614 234.504L124.867 234.504L126.902 237.217L124.867 239.93L129.614 239.93L131.649 237.217"/>
<path class="l5" d="M133.683 236.539L135.04 236.539L135.04 237.895L133.683 237.895L133.683 236.539z"/>
<path class="l5" d="M297.128 269.77L301.875 269.77"/>
<path class="l5" d="M306.622 269.77L304.588 267.057L299.84 267.057L301.875 269.77L299.84 272.483L304.588 272.483L306.622 269.77"/>
<path class="l5" d="M296.449 269.092L297.806 269.092L297.806 270.448L296.449 270.448L296.449 269.092z"/>
<path class="l5" d="M297.128 248.068L298.823 248.068"/>
<path class="l5" d="M304.588 245.355L306.622 248.068L304.588 250.781L300.858 250.781L298.823 248.068L300.858 245.355L304.588 245.355"/>
<path class="l5" d="M296.449 247.39L297.806 247.39L297.806 248.746L296.449 248.746L296.449 247.39z"/>
<path class="l5" d="M297.128 237.217L298.823 237.217"/>
<path class="l5" d="M304.588 234.504L306.622 237.217L304.588 239.93L300.858 239.93L298.823 237.217L300.858 234.504L304.588 234.504"/>
<path class="l5" d="M296.449 236.539L297.806 236.539L297.806 237.895L296.449 237.895L296.449 236.539z"/>
<path class="l5" d="M100.113 182.961L101.808 182.961"/>
<path class="l5" d="M94.3484 180.249L92.3138 182.961L94.3484 185.674L98.0784 185.674L100.113 182.961L98.0784 180.249L94.3484 180.249"/>
<path class="l5" d="M101.13 182.283L102.487 182.283L102.487 183.64L101.13 183.64L101.13 182.283z"/>
<path class="l5" d="M131.649 248.068L134.362 248.068"/>
<path class="l5" d="M131.649 248.068L129.614 245.355L124.867 245.355L126.902 248.068L124.867 250.781L129.614 250.781L131.649 248.068"/>
<path class="l5" d="M133.683 247.39L135.04 247.39L135.04 248.746L133.683 248.746L133.683 247.39z"/>
<path class="l5" d="M942.766 513.919L944.461 513.919"/>
<path class="l5" d="M950.226 511.206L952.26 513.919L950.226 516.632L946.496 516.632L944.461 513.919L946.496 511.206L950.226 511.206"/>
<path class="l5" d="M942.087 513.241L943.444 513.241L943.444 514.597L942.087 514.597L942.087 513.241z"/>
<path class="l5" d="M297.128 280.621L301.875 280.621"/>
<path class="l5" d="M306.622 280.621L304.588 277.908L299.84 277.908L301.875 280.621L299.84 283.334L304.588 283.334L306.622 280.621"/>
<path class="l5" d="M296.449 279.943L297.806 279.943L297.806 281.299L296.449 281.299L296.449 279.943z"/>
<path class="l5" d="M297.128 291.472L301.875 291.472"/>
<path class="l5" d="M306.622 291.472L304.588 288.759L299.84 288.759L301.875 291.472L299.84 294.185L304.588 294.185L306.622 291.472"/>
<path class="l5" d="M296.449 290.794L297.806 290.794L297.806 292.15L296.449 292.15L296.449 290.794z"/>
<path class="l5" d="M131.649 258.919L134.362 258.919"/>
<path class="l5" d="M131.649 258.919L129.614 256.206L124.867 256.206L126.902 258.919L124.867 261.632L129.614 261.632L131.649 258.919"/>
<path class="l5" d="M133.683 258.241L135.04 258.241L135.04 259.597L133.683 259.597L133.683 258.241z"/>
<path class="l5" d="M131.649 269.77L134.362 269.77"/>
<path class="l5" d="M131.649 269.77L129.614 267.057L124.867 267.057L126.902 269.77L124.867 272.483L129.614 272.483L131.649 269.77"/>
<path class="l5" d="M133.683 269.092L135.04 269.092L135.04 270.448L133.683 270.448L133.683 269.092z"/>
<path class="l5" d="M131.649 280.621L134.362 280.621"/>
<path class="l5" d="M131.649 280.621L129.614 277.908L124.867 277.908L126.902 280.621L124.867 283.334L129.614 283.334L131.649 280.621"/>
<path class="l5" d="M133.683 279.943L135.04 279.943L135.04 281.299L133.683 281.299L133.683 279.943z"/>
<path class="l5" d="M295.771 235.86L298.484 235.86L298.484 238.573L295.771 238.573L295.771 235.86z"/>
<path class="l5" d="M133.005 235.86L135.718 235.86L135.718 238.573L133.005 238.573L133.005 235.86z"/>
<path class="l5" d="M295.771 268.414L298.484 268.414L298.484 271.126L295.771 271.126L295.771 268.414z"/>
<path class="l5" d="M295.771 246.711L298.484 246.711L298.484 249.424L295.771 249.424L295.771 246.711z"/>
<path class="l5" d="M133.005 246.711L135.718 246.711L135.718 249.424L133.005 249.424L133.005 246.711z"/>
<path class="l5" d="M295.771 279.265L298.484 279.265L298.484 281.977L295.771 281.977L295.771 279.265z"/>
<path class="l5" d="M295.771 290.116L298.484 290.116L298.484 292.828L295.771 292.828L295.771 290.116z"/>
<path class="l5" d="M133.005 257.563L135.718 257.563L135.718 260.275L133.005 260.275L133.005 257.563z"/>
<path class="l5" d="M133.005 268.414L135.718 268.414L135.718 271.126L133.005 271.126L133.005 268.414z"/>
<path class="l5" d="M133.005 279.265L135.718 279.265L135.718 281.977L133.005 281.977L133.005 279.265z"/>
<path class="l5" d="M133.005 290.116L135.718 290.116L135.718 292.828L133.005 292.828L133.005 290.116z"/>
<path class="l5" d="M295.771 300.967L298.484 300.967L298.484 303.68L295.771 303.68L295.771 300.967z"/>
<path class="l5" d="M295.771 311.818L298.484 311.818L298.484 314.531L295.771 314.531L295.771 311.818z"/>
<path class="l5" d="M947.513 453.56L948.869 453.56L948.869 454.916L947.513 454.916L947.513 453.56z"/>
<path class="l5" d="M746.768 372.177L748.125 372.177L748.125 373.533L746.768 373.533L746.768 372.177z"/>
<path class="l5" d="M96.3829 494.929L96.2134 495.099L96.0439 495.269L95.8743 495.438L95.7048 495.608L95.5352 495.777L95.3657 495.947L95.1961 496.116L95.0266 496.286L94.857 496.455L94.6875 496.625L94.5179 496.794L94.3484 496.964L94.1788 497.134L94.0093 497.303L93.8397 497.473L93.6702 497.642L93.5006 497.812L93.3311 497.981L93.1615 498.151L92.992 498.32L92.8224 498.49L92.6529 498.66L92.4833 498.829L92.3138 498.999L92.1443 499.168L91.9747 499.338L91.8052 499.507L91.6356 499.677L91.4661 499.846L91.2965 500.016L91.127 500.185L90.9574 500.355L90.9574 500.355L90.7932 500.525L90.6395 500.694L90.4965 500.864L90.364 501.033L90.2421 501.203L90.1309 501.372L90.0302 501.542L89.9401 501.711L89.8607 501.881L89.7918 502.05L89.7335 502.22L89.6858 502.39L89.6487 502.559L89.6222 502.729L89.6063 502.898L89.601 503.068L89.6063 503.237L89.6222 503.407L89.6487 503.576L89.6858 503.746L89.7335 503.916L89.7918 504.085L89.8607 504.255L89.9401 504.424L90.0302 504.594L90.1309 504.763L90.2421 504.933L90.364 505.102L90.4965 505.272L90.6395 505.441L90.7932 505.611L90.9574 505.781L90.9574 505.781L91.1276 505.951L91.2992 506.122L91.472 506.295L91.6462 506.469L91.8217 506.645L91.9985 506.822L92.1767 507L92.3562 507.179L92.537 507.36L92.7191 507.542L92.9026 507.726L93.0874 507.91L93.2735 508.097L93.4609 508.284L93.6497 508.473L93.8397 508.663L94.0311 508.854L94.2239 509.047L94.4179 509.241L94.6133 509.436L94.81 509.633L95.008 509.831L95.2074 510.03L95.408 510.231L95.61 510.433L95.8134 510.636L96.018 510.841L96.224 511.047L96.4313 511.254L96.6399 511.463L96.8499 511.673L97.0611 511.884L97.0611 511.884L97.2717 512.095L97.4797 512.303L97.685 512.508L97.8877 512.711L98.0877 512.911L98.2851 513.108L98.4798 513.303L98.6718 513.495L98.8613 513.684L99.048 513.871L99.2321 514.055L99.4136 514.237L99.5924 514.416L99.7686 514.592L99.9421 514.765L100.113 514.936L100.281 515.104L100.447 515.27L100.61 515.433L100.77 515.593L100.928 515.751L101.083 515.906L101.235 516.058L101.385 516.208L101.532 516.355L101.676 516.499L101.818 516.641L101.957 516.78L102.093 516.916L102.227 517.05L102.358 517.181L102.487 517.31L102.487 517.31L102.61 517.435L102.725 517.556L102.832 517.673L102.932 517.787L103.023 517.896L103.107 518.001L103.182 518.103L103.25 518.2L103.309 518.293L103.361 518.383L103.405 518.468L103.44 518.55L103.468 518.627L103.488 518.701L103.5 518.77L103.504 518.836L103.5 518.897L103.488 518.955L103.468 519.009L103.44 519.058L103.405 519.104L103.361 519.146L103.309 519.183L103.25 519.217L103.182 519.247L103.107 519.273L103.023 519.295L102.932 519.313L102.832 519.326L102.725 519.336L102.61 519.342L102.487 519.344L102.487 519.344L102.36 519.344L102.232 519.344L102.105 519.344L101.978 519.344L101.851 519.344L101.724 519.344L101.597 519.344L101.469 519.344L101.342 519.344L101.215 519.344L101.088 519.344L100.961 519.344L100.834 519.344L100.706 519.344L100.579 519.344L100.452 519.344L100.325 519.344L100.198 519.344L100.071 519.344L99.9435 519.344L99.8163 519.344L99.6891 519.344L99.562 519.344L99.4348 519.344L99.3076 519.344L99.1805 519.344L99.0533 519.344L98.9262 519.344L98.799 519.344L98.6718 519.344L98.5447 519.344L98.4175 519.344L98.4175 519.344L98.291 519.344L98.1658 519.344L98.042 519.344L97.9195 519.344L97.7983 519.344L97.6784 519.344L97.5598 519.344L97.4426 519.344L97.3267 519.344L97.2121 519.344L97.0989 519.344L96.987 519.344L96.8764 519.344L96.7671 519.344L96.6591 519.344L96.5525 519.344L96.4472 519.344L96.3432 519.344L96.2406 519.344L96.1392 519.344L96.0392 519.344L95.9405 519.344L95.8432 519.344L95.7471 519.344L95.6524 519.344L95.5591 519.344L95.467 519.344L95.3763 519.344L95.2868 519.344L95.1988 519.344L95.112 519.344L95.0266 519.344L95.0266 519.344L94.9418 519.343L94.857 519.339L94.7722 519.332L94.6875 519.323L94.6027 519.311L94.5179 519.297L94.4331 519.279L94.3484 519.26L94.2636 519.237L94.1788 519.212L94.0941 519.184L94.0093 519.154L93.9245 519.12L93.8397 519.085L93.755 519.046L93.6702 519.005L93.5854 518.962L93.5006 518.915L93.4159 518.866L93.3311 518.815L93.2463 518.76L93.1615 518.703L93.0768 518.644L92.992 518.581L92.9072 518.516L92.8224 518.449L92.7377 518.379L92.6529 518.306L92.5681 518.23L92.4833 518.152L92.3986 518.071L92.3138 517.988L92.3138 517.988L92.229 517.903L92.1443 517.818L92.0595 517.734L91.9747 517.649L91.8899 517.564L91.8052 517.479L91.7204 517.395L91.6356 517.31L91.5508 517.225L91.4661 517.14L91.3813 517.055L91.2965 516.971L91.2117 516.886L91.127 516.801L91.0422 516.716L90.9574 516.632L90.8726 516.547L90.7879 516.462L90.7031 516.377L90.6183 516.292L90.5335 516.208L90.4488 516.123L90.364 516.038L90.2792 515.953L90.1945 515.869L90.1097 515.784L90.0249 515.699L89.9401 515.614L89.8554 515.53L89.7706 515.445L89.6858 515.36L89.601 515.275L89.601 515.275L89.5149 515.189L89.4262 515.1L89.3348 515.009L89.2407 514.915L89.1441 514.818L89.0447 514.719L88.9427 514.617L88.8381 514.512L88.7308 514.405L88.6208 514.295L88.5082 514.182L88.393 514.067L88.2751 513.949L88.1546 513.829L88.0314 513.706L87.9056 513.58L87.7771 513.451L87.6459 513.32L87.5122 513.186L87.3757 513.05L87.2366 512.911L87.0949 512.769L86.9505 512.625L86.8035 512.478L86.6538 512.328L86.5015 512.176L86.3465 512.021L86.1889 511.863L86.0286 511.703L85.8657 511.54L85.7001 511.374L85.5319 511.206L85.5319 511.206L85.3623 511.042L85.1928 510.888L85.0232 510.745L84.8537 510.613L84.6841 510.491L84.5146 510.38L84.3451 510.279L84.1755 510.189L84.006 510.109L83.8364 510.04L83.6669 509.982L83.4973 509.934L83.3278 509.897L83.1582 509.871L82.9887 509.855L82.8191 509.85L82.6496 509.855L82.48 509.871L82.3105 509.897L82.1409 509.934L81.9714 509.982L81.8018 510.04L81.6323 510.109L81.4627 510.189L81.2932 510.279L81.1236 510.38L80.9541 510.491L80.7846 510.613L80.615 510.745L80.4455 510.888L80.2759 511.042L80.1064 511.206L80.1064 511.206L79.9381 511.374L79.7726 511.54L79.6096 511.703L79.4494 511.863L79.2917 512.021L79.1368 512.176L78.9844 512.328L78.8348 512.478L78.6877 512.625L78.5433 512.769L78.4016 512.911L78.2625 513.05L78.1261 513.186L77.9923 513.32L77.8612 513.451L77.7327 513.58L77.6069 513.706L77.4837 513.829L77.3631 513.949L77.2452 514.067L77.13 514.182L77.0174 514.295L76.9075 514.405L76.8002 514.512L76.6955 514.617L76.5935 514.719L76.4942 514.818L76.3975 514.915L76.3035 515.009L76.2121 515.1L76.1233 515.189L76.0372 515.275L76.0372 515.275L75.9524 515.36L75.8677 515.445L75.7829 515.53L75.6981 515.614L75.6133 515.699L75.5286 515.784L75.4438 515.869L75.359 515.953L75.2742 516.038L75.1895 516.123L75.1047 516.208L75.0199 516.292L74.9352 516.377L74.8504 516.462L74.7656 516.547L74.6808 516.632L74.5961 516.716L74.5113 516.801L74.4265 516.886L74.3417 516.971L74.257 517.055L74.1722 517.14L74.0874 517.225L74.0026 517.31L73.9179 517.395L73.8331 517.479L73.7483 517.564L73.6635 517.649L73.5788 517.734L73.494 517.818L73.4092 517.903L73.3244 517.988L73.3244 517.988L73.2397 518.071L73.1549 518.152L73.0701 518.23L72.9854 518.306L72.9006 518.379L72.8158 518.449L72.731 518.516L72.6463 518.581L72.5615 518.644L72.4767 518.703L72.3919 518.76L72.3072 518.815L72.2224 518.866L72.1376 518.915L72.0528 518.962L71.9681 519.005L71.8833 519.046L71.7985 519.085L71.7137 519.12L71.629 519.154L71.5442 519.184L71.4594 519.212L71.3746 519.237L71.2899 519.26L71.2051 519.279L71.1203 519.297L71.0356 519.311L70.9508 519.323L70.866 519.332L70.7812 519.339L70.6965 519.343L70.6117 519.344L70.6117 519.344L70.5262 519.344L70.4395 519.344L70.3514 519.344L70.262 519.344L70.1713 519.344L70.0792 519.344L69.9858 519.344L69.8911 519.344L69.7951 519.344L69.6977 519.344L69.599 519.344L69.499 519.344L69.3977 519.344L69.295 519.344L69.1911 519.344L69.0858 519.344L68.9791 519.344L68.8712 519.344L68.7619 519.344L68.6513 519.344L68.5394 519.344L68.4261 519.344L68.3115 519.344L68.1956 519.344L68.0784 519.344L67.9598 519.344L67.84 519.344L67.7188 519.344L67.5962 519.344L67.4724 519.344L67.3472 519.344L67.2207 519.344L67.2207 519.344L67.0936 519.344L66.9664 519.344L66.8392 519.344L66.7121 519.344L66.5849 519.344L66.4578 519.344L66.3306 519.344L66.2034 519.344L66.0763 519.344L65.9491 519.344L65.822 519.344L65.6948 519.344L65.5676 519.344L65.4405 519.344L65.3133 519.344L65.1862 519.344L65.059 519.344L64.9318 519.344L64.8047 519.344L64.6775 519.344L64.5503 519.344L64.4232 519.344L64.296 519.344L64.1689 519.344L64.0417 519.344L63.9145 519.344L63.7874 519.344L63.6602 519.344L63.5331 519.344L63.4059 519.344L63.2787 519.344L63.1516 519.344L63.1516 519.344L63.0284 519.342L62.9132 519.336L62.8059 519.326L62.7065 519.313L62.6151 519.295L62.5317 519.273L62.4562 519.247L62.3886 519.217L62.329 519.183L62.2773 519.146L62.2336 519.104L62.1979 519.058L62.1701 519.009L62.1502 518.955L62.1383 518.897L62.1343 518.836L62.1383 518.77L62.1502 518.701L62.1701 518.627L62.1979 518.55L62.2336 518.468L62.2773 518.383L62.329 518.293L62.3886 518.2L62.4562 518.103L62.5317 518.001L62.6151 517.896L62.7065 517.787L62.8059 517.673L62.9132 517.556L63.0284 517.435L63.1516 517.31L63.1516 517.31L63.2801 517.181L63.4112 517.05L63.545 516.916L63.6814 516.78L63.8205 516.641L63.9622 516.499L64.1066 516.355L64.2536 516.208L64.4033 516.058L64.5556 515.906L64.7106 515.751L64.8682 515.593L65.0285 515.433L65.1914 515.27L65.357 515.104L65.5252 514.936L65.6961 514.765L65.8696 514.592L66.0458 514.416L66.2246 514.237L66.4061 514.055L66.5902 513.871L66.777 513.684L66.9664 513.495L67.1585 513.303L67.3532 513.108L67.5505 512.911L67.7506 512.711L67.9532 512.508L68.1585 512.303L68.3665 512.095L68.5771 511.884L68.5771 511.884L68.7884 511.673L68.9983 511.463L69.207 511.254L69.4143 511.047L69.6202 510.841L69.8249 510.636L70.0282 510.433L70.2302 510.231L70.4309 510.03L70.6302 509.831L70.8283 509.633L71.025 509.436L71.2203 509.241L71.4144 509.047L71.6071 508.854L71.7985 508.663L71.9886 508.473L72.1773 508.284L72.3648 508.097L72.5509 507.91L72.7357 507.726L72.9191 507.542L73.1013 507.36L73.2821 507.179L73.4615 507L73.6397 506.822L73.8165 506.645L73.992 506.469L74.1662 506.295L74.3391 506.122L74.5106 505.951L74.6808 505.781L74.6808 505.781L74.8451 505.611L74.9987 505.441L75.1418 505.272L75.2742 505.102L75.3961 504.933L75.5074 504.763L75.608 504.594L75.6981 504.424L75.7776 504.255L75.8465 504.085L75.9048 503.916L75.9524 503.746L75.9895 503.576L76.016 503.407L76.0319 503.237L76.0372 503.068L76.0319 502.898L76.016 502.729L75.9895 502.559L75.9524 502.39L75.9048 502.22L75.8465 502.05L75.7776 501.881L75.6981 501.711L75.608 501.542L75.5074 501.372L75.3961 501.203L75.2742 501.033L75.1418 500.864L74.9987 500.694L74.8451 500.525L74.6808 500.355L74.6808 500.355L74.5106 500.185L74.3391 500.013L74.1662 499.84L73.992 499.666L73.8165 499.491L73.6397 499.314L73.4615 499.136L73.2821 498.956L73.1013 498.775L72.9191 498.593L72.7357 498.41L72.5509 498.225L72.3648 498.039L72.1773 497.852L71.9886 497.663L71.7985 497.473L71.6071 497.281L71.4144 497.089L71.2203 496.895L71.025 496.699L70.8283 496.502L70.6302 496.304L70.4309 496.105L70.2302 495.904L70.0282 495.702L69.8249 495.499L69.6202 495.294L69.4143 495.088L69.207 494.881L68.9983 494.672L68.7884 494.463L68.5771 494.251L68.5771 494.251L68.3665 494.041L68.1585 493.833L67.9532 493.627L67.7506 493.425L67.5505 493.225L67.3532 493.027L67.1585 492.833L66.9664 492.641L66.777 492.451L66.5902 492.264L66.4061 492.08L66.2246 491.899L66.0458 491.72L65.8696 491.544L65.6961 491.37L65.5252 491.199L65.357 491.031L65.1914 490.866L65.0285 490.703L64.8682 490.542L64.7106 490.385L64.5556 490.23L64.4033 490.077L64.2536 489.928L64.1066 489.781L63.9622 489.636L63.8205 489.495L63.6814 489.356L63.545 489.219L63.4112 489.085L63.2801 488.954L63.1516 488.826L63.1516 488.826L63.0284 488.701L62.9132 488.579L62.8059 488.462L62.7065 488.349L62.6151 488.24L62.5317 488.134L62.4562 488.033L62.3886 487.936L62.329 487.842L62.2773 487.753L62.2336 487.667L62.1979 487.586L62.1701 487.508L62.1502 487.435L62.1383 487.365L62.1343 487.3L62.1383 487.238L62.1502 487.181L62.1701 487.127L62.1979 487.077L62.2336 487.032L62.2773 486.99L62.329 486.952L62.3886 486.918L62.4562 486.889L62.5317 486.863L62.6151 486.841L62.7065 486.823L62.8059 486.809L62.9132 486.799L63.0284 486.793L63.1516 486.791L63.1516 486.791L63.2787 486.791L63.4059 486.791L63.5331 486.791L63.6602 486.791L63.7874 486.791L63.9145 486.791L64.0417 486.791L64.1689 486.791L64.296 486.791L64.4232 486.791L64.5503 486.791L64.6775 486.791L64.8047 486.791L64.9318 486.791L65.059 486.791L65.1862 486.791L65.3133 486.791L65.4405 486.791L65.5676 486.791L65.6948 486.791L65.822 486.791L65.9491 486.791L66.0763 486.791L66.2034 486.791L66.3306 486.791L66.4578 486.791L66.5849 486.791L66.7121 486.791L66.8392 486.791L66.9664 486.791L67.0936 486.791L67.2207 486.791L67.2207 486.791L67.3472 486.791L67.4724 486.791L67.5962 486.791L67.7188 486.791L67.84 486.791L67.9598 486.791L68.0784 486.791L68.1956 486.791L68.3115 486.791L68.4261 486.791L68.5394 486.791L68.6513 486.791L68.7619 486.791L68.8712 486.791L68.9791 486.791L69.0858 486.791L69.1911 486.791L69.295 486.791L69.3977 486.791L69.499 486.791L69.599 486.791L69.6977 486.791L69.7951 486.791L69.8911 486.791L69.9858 486.791L70.0792 486.791L70.1713 486.791L70.262 486.791L70.3514 486.791L70.4395 486.791L70.5262 486.791L70.6117 486.791L70.6117 486.791L70.6965 486.792L70.7812 486.796L70.866 486.803L70.9508 486.812L71.0356 486.824L71.1203 486.839L71.2051 486.856L71.2899 486.876L71.3746 486.898L71.4594 486.924L71.5442 486.951L71.629 486.982L71.7137 487.015L71.7985 487.051L71.8833 487.089L71.9681 487.13L72.0528 487.174L72.1376 487.22L72.2224 487.269L72.3072 487.321L72.3919 487.375L72.4767 487.432L72.5615 487.492L72.6463 487.554L72.731 487.619L72.8158 487.687L72.9006 487.757L72.9854 487.83L73.0701 487.905L73.1549 487.983L73.2397 488.064L73.3244 488.148L73.3244 488.148L73.4092 488.232L73.494 488.317L73.5788 488.402L73.6635 488.487L73.7483 488.571L73.8331 488.656L73.9179 488.741L74.0026 488.826L74.0874 488.911L74.1722 488.995L74.257 489.08L74.3417 489.165L74.4265 489.25L74.5113 489.334L74.5961 489.419L74.6808 489.504L74.7656 489.589L74.8504 489.673L74.9352 489.758L75.0199 489.843L75.1047 489.928L75.1895 490.013L75.2742 490.097L75.359 490.182L75.4438 490.267L75.5286 490.352L75.6133 490.436L75.6981 490.521L75.7829 490.606L75.8677 490.691L75.9524 490.776L76.0372 490.86L76.0372 490.86L76.1233 490.946L76.2121 491.035L76.3035 491.127L76.3975 491.221L76.4942 491.317L76.5935 491.417L76.6955 491.519L76.8002 491.623L76.9075 491.731L77.0174 491.841L77.13 491.953L77.2452 492.068L77.3631 492.186L77.4837 492.307L77.6069 492.43L77.7327 492.556L77.8612 492.684L77.9923 492.815L78.1261 492.949L78.2625 493.086L78.4016 493.225L78.5433 493.366L78.6877 493.511L78.8348 493.658L78.9844 493.808L79.1368 493.96L79.2917 494.115L79.4494 494.272L79.6096 494.433L79.7726 494.596L79.9381 494.761L80.1064 494.929L80.1064 494.929L80.2759 495.094L80.4455 495.247L80.615 495.39L80.7846 495.523L80.9541 495.645L81.1236 495.756L81.2932 495.857L81.4627 495.947L81.6323 496.026L81.8018 496.095L81.9714 496.153L82.1409 496.201L82.3105 496.238L82.48 496.265L82.6496 496.281L82.8191 496.286L82.9887 496.281L83.1582 496.265L83.3278 496.238L83.4973 496.201L83.6669 496.153L83.8364 496.095L84.006 496.026L84.1755 495.947L84.3451 495.857L84.5146 495.756L84.6841 495.645L84.8537 495.523L85.0232 495.39L85.1928 495.247L85.3623 495.094L85.5319 494.929L85.5319 494.929L85.7001 494.761L85.8657 494.596L86.0286 494.433L86.1889 494.272L86.3465 494.115L86.5015 493.96L86.6538 493.808L86.8035 493.658L86.9505 493.511L87.0949 493.366L87.2366 493.225L87.3757 493.086L87.5122 492.949L87.6459 492.815L87.7771 492.684L87.9056 492.556L88.0314 492.43L88.1546 492.307L88.2751 492.186L88.393 492.068L88.5082 491.953L88.6208 491.841L88.7308 491.731L88.8381 491.623L88.9427 491.519L89.0447 491.417L89.1441 491.317L89.2407 491.221L89.3348 491.127L89.4262 491.035L89.5149 490.946L89.601 490.86L89.601 490.86L89.6858 490.776L89.7706 490.691L89.8554 490.606L89.9401 490.521L90.0249 490.436L90.1097 490.352L90.1945 490.267L90.2792 490.182L90.364 490.097L90.4488 490.013L90.5335 489.928L90.6183 489.843L90.7031 489.758L90.7879 489.673L90.8726 489.589L90.9574 489.504L91.0422 489.419L91.127 489.334L91.2117 489.25L91.2965 489.165L91.3813 489.08L91.4661 488.995L91.5508 488.911L91.6356 488.826L91.7204 488.741L91.8052 488.656L91.8899 488.571L91.9747 488.487L92.0595 488.402L92.1443 488.317L92.229 488.232L92.3138 488.148L92.3138 488.148L92.3986 488.064L92.4833 487.983L92.5681 487.905L92.6529 487.83L92.7377 487.757L92.8224 487.687L92.9072 487.619L92.992 487.554L93.0768 487.492L93.1615 487.432L93.2463 487.375L93.3311 487.321L93.4159 487.269L93.5006 487.22L93.5854 487.174L93.6702 487.13L93.755 487.089L93.8397 487.051L93.9245 487.015L94.0093 486.982L94.0941 486.951L94.1788 486.924L94.2636 486.898L94.3484 486.876L94.4331 486.856L94.5179 486.839L94.6027 486.824L94.6875 486.812L94.7722 486.803L94.857 486.796L94.9418 486.792L95.0266 486.791L95.0266 486.791L95.112 486.791L95.1988 486.791L95.2868 486.791L95.3763 486.791L95.467 486.791L95.5591 486.791L95.6524 486.791L95.7471 486.791L95.8432 486.791L95.9405 486.791L96.0392 486.791L96.1392 486.791L96.2406 486.791L96.3432 486.791L96.4472 486.791L96.5525 486.791L96.6591 486.791L96.7671 486.791L96.8764 486.791L96.987 486.791L97.0989 486.791L97.2121 486.791L97.3267 486.791L97.4426 486.791L97.5598 486.791L97.6784 486.791L97.7983 486.791L97.9195 486.791L98.042 486.791L98.1658 486.791L98.291 486.791L98.4175 486.791L98.4175 486.791L98.5447 486.791L98.6718 486.791L98.799 486.791L98.9262 486.791L99.0533 486.791L99.1805 486.791L99.3076 486.791L99.4348 486.791L99.562 486.791L99.6891 486.791L99.8163 486.791L99.9435 486.791L100.071 486.791L100.198 486.791L100.325 486.791L100.452 486.791L100.579 486.791L100.706 486.791L100.834 486.791L100.961 486.791L101.088 486.791L101.215 486.791L101.342 486.791L101.469 486.791L101.597 486.791L101.724 486.791L101.851 486.791L101.978 486.791L102.105 486.791L102.232 486.791L102.36 486.791L102.487 486.791L102.487 486.791L102.61 486.793L102.725 486.799L102.832 486.809L102.932 486.823L103.023 486.841L103.107 486.863L103.182 486.889L103.25 486.918L103.309 486.952L103.361 486.99L103.405 487.032L103.44 487.077L103.468 487.127L103.488 487.181L103.5 487.238L103.504 487.3L103.5 487.365L103.488 487.435L103.468 487.508L103.44 487.586L103.405 487.667L103.361 487.753L103.309 487.842L103.25 487.936L103.182 488.033L103.107 488.134L103.023 488.24L102.932 488.349L102.832 488.462L102.725 488.579L102.61 488.701L102.487 488.826L102.487 488.826L102.358 488.955L102.224 489.088L102.087 489.225L101.946 489.366L101.801 489.511L101.652 489.66L101.499 489.813L101.342 489.97L101.181 490.131L101.016 490.296L100.847 490.465L100.675 490.638L100.498 490.815L100.317 490.995L100.132 491.18L99.9435 491.369L99.7507 491.562L99.554 491.758L99.3533 491.959L99.1487 492.164L98.9401 492.372L98.7275 492.585L98.5109 492.802L98.2904 493.022L98.0658 493.247L97.8374 493.475L97.6049 493.708L97.3684 493.944L97.128 494.184L96.8836 494.429L96.6353 494.677L96.3829 494.929"/>
<path class="l5" d="M556.197 214.158L558.909 214.158L558.909 216.871L556.197 216.871L556.197 214.158z"/>
<path class="l5" d="M501.941 214.158L504.654 214.158L504.654 216.871L501.941 216.871L501.941 214.158z"/>
<path class="l5" d="M583.324 246.711L586.037 246.711L586.037 249.424L583.324 249.424L583.324 246.711z"/>
<path class="l5" d="M474.814 246.711L477.526 246.711L477.526 249.424L474.814 249.424L474.814 246.711z"/>
<path class="l5" d="M529.069 279.265L531.782 279.265L531.782 281.977L529.069 281.977L529.069 279.265z"/>
<path class="l5" d="M501.941 322.669L504.654 322.669L504.654 325.382L501.941 325.382L501.941 322.669z"/>
<path class="l5" d="M474.814 355.222L477.526 355.222L477.526 357.935L474.814 357.935L474.814 355.222z"/>
<path class="l5" d="M583.324 355.222L586.037 355.222L586.037 357.935L583.324 357.935L583.324 355.222z"/>
<path class="l5" d="M529.069 387.775L531.782 387.775L531.782 390.488L529.069 390.488L529.069 387.775z"/>
<path class="l5" d="M756.941 192.456L759.654 192.456L759.654 195.169L756.941 195.169L756.941 192.456z"/>
<path class="l5" d="M919.707 230.435L922.42 230.435L922.42 233.148L919.707 233.148L919.707 230.435z"/>
<path class="l5" d="M756.941 203.307L759.654 203.307L759.654 206.02L756.941 206.02L756.941 203.307z"/>
<path class="l5" d="M756.941 214.158L759.654 214.158L759.654 216.871L756.941 216.871L756.941 214.158z"/>
<path class="l5" d="M756.941 225.009L759.654 225.009L759.654 227.722L756.941 227.722L756.941 225.009z"/>
<path class="l5" d="M756.941 235.86L759.654 235.86L759.654 238.573L756.941 238.573L756.941 235.86z"/>
<path class="l5" d="M756.941 246.711L759.654 246.711L759.654 249.424L756.941 249.424L756.941 246.711z"/>
<path class="l5" d="M756.941 257.563L759.654 257.563L759.654 260.275L756.941 260.275L756.941 257.563z"/>
<path class="l5" d="M756.941 268.414L759.654 268.414L759.654 271.126L756.941 271.126L756.941 268.414z"/>
<path class="l5" d="M838.324 284.69L841.037 284.69L841.037 287.403L838.324 287.403L838.324 284.69z"/>
<path class="l5" d="M632.154 246.711L634.867 246.711L634.867 249.424L632.154 249.424L632.154 246.711z"/>
<path class="l5" d="M675.558 246.711L678.271 246.711L678.271 249.424L675.558 249.424L675.558 246.711z"/>
<path class="l5" d="M800.345 328.094L803.058 328.094L803.058 330.807L800.345 330.807L800.345 328.094z"/>
<path class="l5" d="M832.899 338.945L835.611 338.945L835.611 341.658L832.899 341.658L832.899 338.945z"/>
<path class="l5" d="M746.09 349.797L748.803 349.797L748.803 352.509L746.09 352.509L746.09 349.797z"/>
<path class="l5" d="M832.899 382.35L835.611 382.35L835.611 385.062L832.899 385.062L832.899 382.35z"/>
<path class="l5" d="M800.345 393.201L803.058 393.201L803.058 395.914L800.345 395.914L800.345 393.201z"/>
<path class="l5" d="M778.643 393.201L781.356 393.201L781.356 395.914L778.643 395.914L778.643 393.201z"/>
<path class="l5" d="M746.09 371.499L748.803 371.499L748.803 374.211L746.09 374.211L746.09 371.499z"/>
<path class="l5" d="M529.747 279.943L531.104 279.943L531.104 281.299L529.747 281.299L529.747 279.943z"/>
<path class="l5" d="M529.747 388.453L531.104 388.453L531.104 389.81L529.747 389.81L529.747 388.453z"/>
<path class="l5" d="M801.024 393.879L802.38 393.879L802.38 395.235L801.024 395.235L801.024 393.879z"/>
<path class="l5" d="M839.002 285.368L840.359 285.368L840.359 286.725L839.002 286.725L839.002 285.368z"/>
<path class="l5" d="M502.62 323.347L503.976 323.347L503.976 324.703L502.62 324.703L502.62 323.347z"/>
<path class="l5" d="M502.62 214.836L503.976 214.836L503.976 216.193L502.62 216.193L502.62 214.836z"/>
<path class="l5" d="M556.875 214.836L558.231 214.836L558.231 216.193L556.875 216.193L556.875 214.836z"/>
<path class="l5" d="M801.024 328.773L802.38 328.773L802.38 330.129L801.024 330.129L801.024 328.773z"/>
<path class="l5" d="M730.831 193.473L731.509 193.473L731.509 194.152L730.831 194.152L730.831 193.473z"/>
<path class="l5" d="M730.831 204.325L731.509 204.325L731.509 205.003L730.831 205.003L730.831 204.325z"/>
<path class="l5" d="M730.831 215.176L731.509 215.176L731.509 215.854L730.831 215.854L730.831 215.176z"/>
<path class="l5" d="M730.831 226.027L731.509 226.027L731.509 226.705L730.831 226.705L730.831 226.027z"/>
<path class="l5" d="M730.831 236.878L731.509 236.878L731.509 237.556L730.831 237.556L730.831 236.878z"/>
<path class="l5" d="M730.831 247.729L731.509 247.729L731.509 248.407L730.831 248.407L730.831 247.729z"/>
<path class="l5" d="M730.831 258.58L731.509 258.58L731.509 259.258L730.831 259.258L730.831 258.58z"/>
<path class="l5" d="M730.831 269.431L731.509 269.431L731.509 270.109L730.831 270.109L730.831 269.431z"/>
<path class="l5" d="M676.236 247.39L677.593 247.39L677.593 248.746L676.236 248.746L676.236 247.39z"/>
<path class="l5" d="M101.13 182.283L102.487 182.283L102.487 183.64L101.13 183.64L101.13 182.283z"/>
<path class="l5" d="M833.577 339.624L834.933 339.624L834.933 340.98L833.577 340.98L833.577 339.624z"/>
<path class="l5" d="M942.087 301.645L943.444 301.645L943.444 303.001L942.087 303.001L942.087 301.645z"/>
<path class="l5" d="M947.513 453.56L948.869 453.56L948.869 454.916L947.513 454.916L947.513 453.56z"/>
<path class="l5" d="M942.087 513.241L943.444 513.241L943.444 514.597L942.087 514.597L942.087 513.241z"/>
<path class="l5" d="M253.045 355.9L254.402 355.9L254.402 357.257L253.045 357.257L253.045 355.9z"/>
<path class="l5" d="M410.385 247.39L411.742 247.39L411.742 248.746L410.385 248.746L410.385 247.39z"/>
<path class="l5" d="M616.556 247.39L617.912 247.39L617.912 248.746L616.556 248.746L616.556 247.39z"/>
<path class="l6" d="M223.883 503.068L655.213 503.068"/>
<path class="l6" d="M15 503.068L50.2659 503.068"/>
<path class="l7" d="M286.276 237.217L297.128 237.217"/>
<path class="l7" d="M286.276 248.068L297.128 248.068"/>
<path class="l7" d="M557.553 215.515L557.553 226.366"/>
<path class="l7" d="M503.298 215.515L503.298 226.366"/>
<path class="l7" d="M530.425 269.77L530.425 280.621"/>
<path class="l7" d="M503.298 324.025L503.298 334.876"/>
<path class="l7" d="M530.425 378.281L530.425 389.132"/>
<path class="l7" d="M839.681 275.196L839.681 286.047"/>
<path class="l1" d="M297.128 302.323L411.064 302.323"/>
<path class="l1" d="M411.064 248.068L411.064 302.323"/>
<path class="l1" d="M411.064 248.068L476.17 248.068"/>
<path class="l1" d="M921.063 231.791L942.766 231.791"/>
<path class="l1" d="M942.766 231.791L942.766 340.302"/>
<path class="l1" d="M617.234 351.153L747.447 351.153"/>
<path class="l1" d="M584.681 356.578L617.234 356.578"/>
<path class="l1" d="M617.234 351.153L617.234 356.578"/>
<path class="l1" d="M297.128 313.174L367.659 313.174"/>
<path class="l1" d="M367.659 313.174L367.659 481.366"/>
<path class="l1" d="M367.659 481.366L780 481.366"/>
<path class="l1" d="M780 394.557L780 481.366"/>
<path class="l1" d="M584.681 248.068L633.51 248.068"/>
<path class="l1" d="M676.915 248.068L704.042 248.068"/>
<path class="l1" d="M704.042 248.068L704.042 286.047"/>
<path class="l1" d="M704.042 286.047L725.744 286.047"/>
<path class="l1" d="M725.744 199.238L725.744 286.047"/>
<path class="l1" d="M731.17 193.813L758.298 193.813"/>
<path class="l1" d="M731.17 204.664L758.298 204.664"/>
<path class="l1" d="M731.17 215.515L758.298 215.515"/>
<path class="l1" d="M731.17 226.366L758.298 226.366"/>
<path class="l1" d="M731.17 237.217L758.298 237.217"/>
<path class="l1" d="M731.17 248.068L758.298 248.068"/>
<path class="l1" d="M731.17 258.919L758.298 258.919"/>
<path class="l1" d="M731.17 269.77L758.298 269.77"/>
<path class="l1" d="M118.085 291.472L134.362 291.472"/>
<path class="l1" d="M118.085 291.472L118.085 345.727"/>
<path class="l1" d="M118.085 356.578L476.17 356.578"/>
<path class="l1" d="M118.085 345.727L118.085 356.578"/>
<path class="l1" d="M942.766 340.302L942.766 383.706"/>
<path class="l1" d="M834.255 383.706L942.766 383.706"/>
</svg>
