<svg xmlns="http://www.w3.org/2000/svg" xmlns:xlink="http://www.w3.org/1999/xlink" width="1000" height="700" version="1.1">
<style type="text/css">
.l0{
  fill: #000000;
  stroke: #000000;
  stroke-linecap:round;
  stroke-linejoin:round;
  stroke-width: 0.650178;
}
.l1{
  fill: #00ccee;
  stroke: #00ccee;
  stroke-linecap:round;
  stroke-linejoin:round;
  stroke-width: 0.650178;
}
.l2{
  fill: #4f4f4f; fill-opacity: 0.2;
  stroke: #4f4f4f;
  stroke-linecap:round;
  stroke-linejoin:round;
  stroke-width: 0.650178;
}
.l3{
  fill: #cccccc; fill-opacity: 0.5;
  stroke: #cccccc;
  stroke-linecap:round;
  stroke-linejoin:round;
  stroke-width: 0.650178;
}
.l4{
  fill: #88dd00;
  stroke: #88dd00;
  stroke-linecap:round;
  stroke-linejoin:round;
  stroke-width: 0.650178;
}
.l5{
  fill: #bb2200;
  stroke: #bb2200;
  stroke-linecap:round;
  stroke-linejoin:round;
  stroke-width: 0.650178;
}
.l6{
  fill: #00ccee; fill-opacity: 0.5;
  stroke: #00ccee;
  stroke-linecap:round;
  stroke-linejoin:round;
  stroke-width: 0.650178;
}
.l7{
  fill: #ff0000; fill-opacity: 0.5;
  stroke: #ff0000;
  stroke-linecap:round;
  stroke-linejoin:round;
  stroke-width: 0.650178;
}
.l8{
  fill: #ffff00; fill-opacity: 0.5;
  stroke: #ffff00;
  stroke-linecap:round;
  stroke-linejoin:round;
  stroke-width: 0.650178;
}
.l9{
  fill: #ffffff; fill-opacity: 0.5;
  stroke: #ffffff;
  stroke-linecap:round;
  stroke-linejoin:round;
  stroke-width: 0.650178;
}
.l10{
  fill: #ff00ff;
  stroke: #ff00ff;
  stroke-linecap:round;
  stroke-linejoin:round;
  stroke-width: 0.650178;
}
.l11{
  fill: #00ff00; fill-opacity: 0.5;
  stroke: #00ff00;
  stroke-linecap:round;
  stroke-linejoin:round;
  stroke-width: 0.650178;
}
.l12{
  fill: #0000ff; fill-opacity: 0.5;
  stroke: #0000ff;
  stroke-linecap:round;
  stroke-linejoin:round;
  stroke-width: 0.650178;
}
.l13{
  fill: #aaaa00; fill-opacity: 0.5;
  stroke: #aaaa00;
  stroke-linecap:round;
  stroke-linejoin:round;
  stroke-width: 0.650178;
}
.l14{
  fill: #aaccaa; fill-opacity: 0.2;
  stroke: #aaccaa;
  stroke-linecap:round;
  stroke-linejoin:round;
  stroke-width: 0.650178;
}
.l15{
  fill: #ff7777; fill-opacity: 0.5;
  stroke: #ff7777;
  stroke-linecap:round;
  stroke-linejoin:round;
  stroke-width: 0.650178;
}
.l16{
  fill: #bfff81; fill-opacity: 0.5;
  stroke: #bfff81;
  stroke-linecap:round;
  stroke-linejoin:round;
  stroke-width: 0.650178;
}
.l17{
  fill: #00ffcc; fill-opacity: 0.2;
  stroke: #00ffcc;
  stroke-linecap:round;
  stroke-linejoin:round;
  stroke-width: 0.650178;
}
.l18{
  fill: #ce0097; fill-opacity: 0.5;
  stroke: #ce0097;
  stroke-linecap:round;
  stroke-linejoin:round;
  stroke-width: 0.650178;
}
.l19{
  fill: #d2d46b; fill-opacity: 0.2;
  stroke: #d2d46b;
  stroke-linecap:round;
  stroke-linejoin:round;
  stroke-width: 0.650178;
}
.l20{
  fill: #ef6158; fill-opacity: 0.2;
  stroke: #ef6158;
  stroke-linecap:round;
  stroke-linejoin:round;
  stroke-width: 0.650178;
}
.l21{
  fill: #fdb200; fill-opacity: 0.2;
  stroke: #fdb200;
  stroke-linecap:round;
  stroke-linejoin:round;
  stroke-width: 0.650178;
}
text {font-family: Sans-Serif;}
</style>
<rect class="l0" x="0" y="0" width="1000" height="700"/>
<text fill="#cccccc"  xml:space="preserve" font-size="25.0439" transform="translate(131.641, 157.368)" >Digital</text>
<text fill="#cccccc"  xml:space="preserve" font-size="25.0439" transform="translate(486.831, 157.368)" >Analog</text>
<text fill="#cccccc"  xml:space="preserve" font-size="12.522" transform="translate(77.4593, 386.805)" >Power supply</text>
<text fill="#cccccc"  xml:space="preserve" font-size="12.522" transform="translate(185.822, 386.805)" >Analog pins</text>
<text fill="#cccccc"  xml:space="preserve" font-size="12.522" transform="translate(944.364, 188.14)" >Analog out</text>
<text fill="#cccccc"  xml:space="preserve" font-size="12.522" transform="translate(866.102, 356.704)" >Analog in</text>
<text fill="#00ccee"  xml:space="preserve" font-size="10.3306" transform="translate(22.1715, 241.084)" >ui_in[7:0]</text>
<text fill="#00ccee"  xml:space="preserve" font-size="10.3306" transform="translate(270.105, 277.205)" >uo_out[7:0]</text>
<text fill="#00ccee"  xml:space="preserve" font-size="10.3306" transform="translate(83.6743, 462.893)" >VGND</text>
<text fill="#00ccee"  xml:space="preserve" font-size="10.3306" transform="translate(76.6743, 444.832)" >VDPWR</text>
<text fill="#00ccee"  xml:space="preserve" font-size="10.3306" transform="translate(77.6743, 426.771)" >VAPWR</text>
<text fill="#00ccee"  xml:space="preserve" font-size="10.3306" transform="translate(16.1715, 253.124)" >uio_in[7:0]</text>
<text fill="#00ccee"  xml:space="preserve" font-size="10.3306" transform="translate(189.037, 426.771)" >ua[7:0]</text>
<text fill="#00ccee"  xml:space="preserve" font-size="10.3306" transform="translate(270.105, 289.245)" >uio_out[7:0]</text>
<text fill="#00ccee"  xml:space="preserve" font-size="10.3306" transform="translate(270.105, 301.286)" >uio_oe[7:0]</text>
<text fill="#00ccee"  xml:space="preserve" font-size="10.3306" transform="translate(48.1715, 265.165)" >ena</text>
<text fill="#00ccee"  xml:space="preserve" font-size="10.3306" transform="translate(52.1715, 277.205)" >clk</text>
<text fill="#00ccee"  xml:space="preserve" font-size="10.3306" transform="translate(42.1715, 289.245)" >rst_n</text>
<path class="l1" d="M721.618 170.749L727.638 164.729"/>
<text fill="#00ccee"  xml:space="preserve" font-size="8.45232" transform="translate(736.817, 163.224) rotate(270)" >D[0]</text>
<path class="l1" d="M721.618 182.79L727.638 176.77"/>
<text fill="#00ccee"  xml:space="preserve" font-size="8.45232" transform="translate(736.817, 175.265) rotate(270)" >D[1]</text>
<path class="l1" d="M721.618 194.83L727.638 188.81"/>
<text fill="#00ccee"  xml:space="preserve" font-size="8.45232" transform="translate(736.817, 187.305) rotate(270)" >D[2]</text>
<path class="l1" d="M721.618 206.87L727.638 200.85"/>
<text fill="#00ccee"  xml:space="preserve" font-size="8.45232" transform="translate(736.817, 199.345) rotate(270)" >D[3]</text>
<path class="l1" d="M721.618 218.911L727.638 212.891"/>
<text fill="#00ccee"  xml:space="preserve" font-size="8.45232" transform="translate(736.817, 211.386) rotate(270)" >D[4]</text>
<path class="l1" d="M721.618 230.951L727.638 224.931"/>
<text fill="#00ccee"  xml:space="preserve" font-size="8.45232" transform="translate(736.817, 223.426) rotate(270)" >D[5]</text>
<path class="l1" d="M721.618 242.991L727.638 236.971"/>
<text fill="#00ccee"  xml:space="preserve" font-size="8.45232" transform="translate(736.817, 235.466) rotate(270)" >D[6]</text>
<path class="l1" d="M721.618 255.032L727.638 249.012"/>
<text fill="#00ccee"  xml:space="preserve" font-size="8.45232" transform="translate(736.817, 247.507) rotate(270)" >D[7]</text>
<text fill="#00ccee"  xml:space="preserve" font-size="8.45232" transform="translate(693.022, 264.3)" >D[7:0]</text>
<text fill="#00ccee"  xml:space="preserve" font-size="8.45232" transform="translate(127.126, 420.824)" >VAPWR</text>
<text fill="#00ccee"  xml:space="preserve" font-size="8.45232" transform="translate(879.647, 372.663)" >ua[0]</text>
<text fill="#00ccee"  xml:space="preserve" font-size="8.45232" transform="translate(963.929, 204.098)" >ua[1]</text>
<text fill="#00ccee"  xml:space="preserve" font-size="8.45232" transform="translate(198.458, 444.905)" >ua[7:2]</text>
<text fill="#00ccee"  xml:space="preserve" font-size="8.45232" transform="translate(235.489, 420.824)" >ua[7:0]</text>
<text fill="#00ccee"  xml:space="preserve" font-size="8.45232" transform="translate(417.225, 384.703)" >port_ms_i</text>
<text fill="#00ccee"  xml:space="preserve" font-size="8.45232" transform="translate(396.225, 264.3)" >port_ms_o[7:0]</text>
<text fill="#00ccee"  xml:space="preserve" font-size="8.45232" transform="translate(590.679, 264.3)" >port_ms_ana[7:0]</text>
<text fill="#00ccee"  xml:space="preserve" font-size="8.45232" transform="translate(127.126, 438.884)" >VDPWR</text>
<text fill="#00ccee"  xml:space="preserve" font-size="8.45232" transform="translate(127.126, 456.945)" >VGND</text>
<text fill="#00ccee"  xml:space="preserve" font-size="6.26098" transform="translate(491.346, 215.565)" >VDPWR</text>
<text fill="#00ccee"  xml:space="preserve" font-size="6.26098" transform="translate(551.548, 215.565)" >VAPWR</text>
<text fill="#00ccee"  xml:space="preserve" font-size="6.26098" transform="translate(533.487, 311.888)" >VGND</text>
<text fill="#00ccee"  xml:space="preserve" font-size="8.45232" transform="translate(259.569, 246.239)" >VGND</text>
<text fill="#00ccee"  xml:space="preserve" font-size="8.45232" transform="translate(259.569, 234.199)" >VDPWR</text>
<text fill="#00ccee"  xml:space="preserve" font-size="6.26098" transform="translate(852.556, 275.767)" >VGND</text>
<text fill="#00ccee"  xml:space="preserve" font-size="6.26098" transform="translate(834.496, 444.332)" >VGND</text>
<text fill="#00ccee"  xml:space="preserve" font-size="6.26098" transform="translate(533.487, 432.292)" >VGND</text>
<text fill="#00ccee"  xml:space="preserve" font-size="6.26098" transform="translate(491.346, 335.969)" >VDPWR</text>
<text fill="#00ccee"  xml:space="preserve" font-size="6.26098" transform="translate(822.455, 348.009)" >VAPWR</text>
<text fill="#00ccee"  xml:space="preserve" font-size="8.45232" transform="translate(259.569, 317.641)" >port_ms_o[7:0]</text>
<text fill="#00ccee"  xml:space="preserve" font-size="8.45232" transform="translate(259.569, 329.681)" >clk_o</text>
<text fill="#00ccee"  xml:space="preserve" font-size="8.45232" transform="translate(37.9542, 305.6)" >port_ms_i</text>
<text fill="#00ccee"  xml:space="preserve" font-size="8.45232" transform="translate(803.127, 469.182) rotate(270)" >clk_o</text>
<text fill="#00ccee"  xml:space="preserve" font-size="8.45232" transform="translate(674.961, 384.703)" >out_p</text>
<text fill="#cccccc"  xml:space="preserve" font-size="9.39147" transform="translate(96.7238, 320.149)" >dig_ctrl_top</text>
<text fill="#cccccc"  xml:space="preserve" font-size="6.26098" transform="translate(249.034, 229.412)" >x1</text>
<text fill="#cccccc"  xml:space="preserve" font-size="6.26098" transform="translate(220.014, 240.248)" >VDPWR</text>
<text fill="#cccccc"  xml:space="preserve" font-size="6.26098" transform="translate(92.5097, 240.248)" >ui_in[7:0]</text>
<text fill="#cccccc"  xml:space="preserve" font-size="6.26098" transform="translate(208.014, 276.369)" >uo_out[7:0]</text>
<text fill="#cccccc"  xml:space="preserve" font-size="6.26098" transform="translate(224.014, 252.289)" >VGND</text>
<text fill="#cccccc"  xml:space="preserve" font-size="6.26098" transform="translate(92.5097, 252.289)" >uio_in[7:0]</text>
<text fill="#cccccc"  xml:space="preserve" font-size="6.26098" transform="translate(206.014, 288.41)" >uio_out[7:0]</text>
<text fill="#cccccc"  xml:space="preserve" font-size="6.26098" transform="translate(208.014, 300.45)" >uio_oe[7:0]</text>
<text fill="#cccccc"  xml:space="preserve" font-size="6.26098" transform="translate(92.5097, 264.329)" >ena</text>
<text fill="#cccccc"  xml:space="preserve" font-size="6.26098" transform="translate(92.5097, 276.369)" >clk</text>
<text fill="#cccccc"  xml:space="preserve" font-size="6.26098" transform="translate(92.5097, 288.41)" >rst_n</text>
<text fill="#cccccc"  xml:space="preserve" font-size="6.26098" transform="translate(92.5097, 300.45)" >port_ms_i</text>
<text fill="#cccccc"  xml:space="preserve" font-size="6.26098" transform="translate(197.014, 312.49)" >port_ms_o[7:0]</text>
<text fill="#cccccc"  xml:space="preserve" font-size="6.26098" transform="translate(228.014, 324.531)" >clk_o</text>
<text fill="#88dd00"  xml:space="preserve" font-size="4.69573" transform="translate(230.746, 449.307)" >NC</text>
<text fill="#88dd00"  xml:space="preserve" font-size="4.69573" transform="translate(759.996, 413.186)" >NC</text>
<text fill="#cccccc"  xml:space="preserve" font-size="12.522" transform="translate(369.438, 540.32)" >         /home/leo/Projects/tt08-aicd-playground/xschem/tt_um_tt08_aicd_playground.sch</text>
<text fill="#cccccc"  xml:space="preserve" font-size="12.522" transform="translate(369.438, 522.259)" >Leo Moser</text>
<text fill="#cccccc"  xml:space="preserve" font-size="12.522" transform="translate(724.021, 522.259)" >2024-08-27  15:24:35</text>
<text fill="#cccccc"  xml:space="preserve" font-size="31.3049" transform="translate(230.974, 539.314)" >SCHEM</text>
<text fill="#cccccc"  xml:space="preserve" font-size="9.39147" transform="translate(535.293, 302.088)" >sky130_leo_ip__levelshifter_up</text>
<text fill="#cccccc"  xml:space="preserve" font-size="6.26098" transform="translate(574.123, 235.432)" >x2[7:0]</text>
<text fill="#cccccc"  xml:space="preserve" font-size="6.26098" transform="translate(546.123, 252.289)" >VDDOUT</text>
<text fill="#cccccc"  xml:space="preserve" font-size="6.26098" transform="translate(486.901, 252.289)" >VDDIN</text>
<text fill="#cccccc"  xml:space="preserve" font-size="6.26098" transform="translate(560.123, 270.349)" >OUT</text>
<text fill="#cccccc"  xml:space="preserve" font-size="6.26098" transform="translate(483.821, 270.349)" >IN</text>
<text fill="#cccccc"  xml:space="preserve" font-size="6.26098" transform="translate(519.942, 286.044)" >VGND</text>
<text fill="#cccccc"  xml:space="preserve" font-size="9.39147" transform="translate(379.651, 422.492)" >sky130_leo_ip__levelshifter_down</text>
<text fill="#cccccc"  xml:space="preserve" font-size="6.26098" transform="translate(476.821, 355.835)" >x3</text>
<text fill="#cccccc"  xml:space="preserve" font-size="6.26098" transform="translate(483.821, 372.692)" >VDDOUT</text>
<text fill="#cccccc"  xml:space="preserve" font-size="6.26098" transform="translate(483.821, 390.752)" >OUT</text>
<text fill="#cccccc"  xml:space="preserve" font-size="6.26098" transform="translate(567.123, 390.752)" >IN</text>
<text fill="#cccccc"  xml:space="preserve" font-size="6.26098" transform="translate(519.002, 406.448)" >VGND</text>
<text fill="#cccccc"  xml:space="preserve" font-size="9.39147" transform="translate(790.247, 205.766)" >sky130_leo_ip__rdac_8bit</text>
<text fill="#cccccc"  xml:space="preserve" font-size="6.26098" transform="translate(929.313, 157.17)" >x2</text>
<text fill="#cccccc"  xml:space="preserve" font-size="6.26098" transform="translate(772.789, 168.006)" >D0</text>
<text fill="#cccccc"  xml:space="preserve" font-size="6.26098" transform="translate(909.293, 210.147)" >OUT</text>
<text fill="#cccccc"  xml:space="preserve" font-size="6.26098" transform="translate(772.789, 180.046)" >D1</text>
<text fill="#cccccc"  xml:space="preserve" font-size="6.26098" transform="translate(772.789, 192.087)" >D2</text>
<text fill="#cccccc"  xml:space="preserve" font-size="6.26098" transform="translate(772.789, 204.127)" >D3</text>
<text fill="#cccccc"  xml:space="preserve" font-size="6.26098" transform="translate(772.789, 216.168)" >D4</text>
<text fill="#cccccc"  xml:space="preserve" font-size="6.26098" transform="translate(772.789, 228.208)" >D5</text>
<text fill="#cccccc"  xml:space="preserve" font-size="6.26098" transform="translate(772.789, 240.248)" >D6</text>
<text fill="#cccccc"  xml:space="preserve" font-size="6.26098" transform="translate(772.789, 252.289)" >D7</text>
<text fill="#cccccc"  xml:space="preserve" font-size="6.26098" transform="translate(839.011, 249.923)" >VGND</text>
<text fill="#cccccc"  xml:space="preserve" font-size="6.26098" transform="translate(646.365, 264.329)" >A</text>
<text fill="#cccccc"  xml:space="preserve" font-size="6.26098" transform="translate(684.507, 264.329)" >X</text>
<text fill="#cccccc"  xml:space="preserve" font-size="6.26098" transform="translate(668.941, 281.787)" >x1[7:0]</text>
<text fill="#cccccc"  xml:space="preserve" font-size="6.26098" transform="translate(662.921, 257.707)" >buf_4</text>
<text fill="#cccccc"  xml:space="preserve" font-size="9.39147" transform="translate(728.041, 404.431)" >sky130_leo_ip__comparator</text>
<text fill="#cccccc"  xml:space="preserve" font-size="6.26098" transform="translate(832.011, 391.956)" >x4</text>
<text fill="#cccccc"  xml:space="preserve" font-size="6.26098" transform="translate(814.93, 372.692)" >vdd</text>
<text fill="#cccccc"  xml:space="preserve" font-size="6.26098" transform="translate(838.051, 378.712)" >in_p</text>
<text fill="#cccccc"  xml:space="preserve" font-size="6.26098" transform="translate(772.789, 384.732)" >out_p</text>
<text fill="#cccccc"  xml:space="preserve" font-size="6.26098" transform="translate(838.051, 420.853)" >in_n</text>
<text fill="#cccccc"  xml:space="preserve" font-size="6.26098" transform="translate(814.93, 432.894)" >vss</text>
<text fill="#cccccc"  xml:space="preserve" font-size="6.26098" transform="translate(784.829, 432.894)" >clk</text>
<text fill="#cccccc"  xml:space="preserve" font-size="6.26098" transform="translate(772.789, 408.813)" >out_n</text>
<path class="l4" d="M89.4996 230.951L246.024 230.951"/>
<path class="l4" d="M89.4996 333.294L246.024 333.294"/>
<path class="l4" d="M89.4996 230.951L89.4996 315.234"/>
<path class="l4" d="M246.024 230.951L246.024 315.234"/>
<path class="l4" d="M89.4996 315.234L89.4996 333.294"/>
<path class="l4" d="M246.024 315.234L246.024 333.294"/>
<path class="l4" d="M246.024 242.991L246.024 327.274"/>
<path class="l4" d="M77.4593 236.971L89.4996 236.971"/>
<path class="l4" d="M77.4593 249.012L89.4996 249.012"/>
<path class="l4" d="M77.4593 261.052L89.4996 261.052"/>
<path class="l4" d="M77.4593 273.092L89.4996 273.092"/>
<path class="l4" d="M77.4593 285.133L89.4996 285.133"/>
<path class="l4" d="M77.4593 297.173L89.4996 297.173"/>
<path class="l4" d="M246.024 273.092L258.064 273.092"/>
<path class="l4" d="M246.024 285.133L258.064 285.133"/>
<path class="l4" d="M246.024 297.173L258.064 297.173"/>
<path class="l4" d="M246.024 309.213L258.064 309.213"/>
<path class="l4" d="M246.024 321.254L258.064 321.254"/>
<path class="l4" d="M227.964 447.677L230.221 447.677"/>
<path class="l4" d="M767.521 411.556L769.779 411.556"/>
<path class="l4" d="M577.133 267.072L589.174 267.072"/>
<path class="l4" d="M468.77 267.072L480.811 267.072"/>
<path class="l4" d="M480.811 242.991L577.133 242.991"/>
<path class="l4" d="M480.811 291.153L577.133 291.153"/>
<path class="l4" d="M528.972 249.012L528.972 255.032"/>
<path class="l4" d="M528.972 261.052L528.972 267.072"/>
<path class="l4" d="M528.972 273.092L528.972 279.112"/>
<path class="l4" d="M480.811 242.991L480.811 291.153"/>
<path class="l4" d="M577.133 242.991L577.133 291.153"/>
<path class="l4" d="M468.77 387.476L480.811 387.476"/>
<path class="l4" d="M577.133 387.476L589.174 387.476"/>
<path class="l4" d="M480.811 363.395L577.133 363.395"/>
<path class="l4" d="M480.811 411.556L577.133 411.556"/>
<path class="l4" d="M528.972 369.415L528.972 375.435"/>
<path class="l4" d="M528.972 381.455L528.972 387.476"/>
<path class="l4" d="M528.972 393.496L528.972 399.516"/>
<path class="l4" d="M577.133 363.395L577.133 411.556"/>
<path class="l4" d="M480.811 363.395L480.811 411.556"/>
<path class="l4" d="M769.779 158.709L926.303 158.709"/>
<path class="l4" d="M769.779 255.032L926.303 255.032"/>
<path class="l4" d="M769.779 158.709L769.779 255.032"/>
<path class="l4" d="M926.303 158.709L926.303 255.032"/>
<path class="l4" d="M757.739 164.729L769.779 164.729"/>
<path class="l4" d="M926.303 206.87L938.344 206.87"/>
<path class="l4" d="M757.739 176.77L769.779 176.77"/>
<path class="l4" d="M757.739 188.81L769.779 188.81"/>
<path class="l4" d="M757.739 200.85L769.779 200.85"/>
<path class="l4" d="M757.739 212.891L769.779 212.891"/>
<path class="l4" d="M757.739 224.931L769.779 224.931"/>
<path class="l4" d="M757.739 236.971L769.779 236.971"/>
<path class="l4" d="M757.739 249.012L769.779 249.012"/>
<path class="l4" d="M655.396 255.032L655.396 279.112"/>
<path class="l4" d="M655.396 255.032L679.476 267.072"/>
<path class="l4" d="M655.396 279.112L679.476 267.072"/>
<path class="l4" d="M679.476 267.072L691.517 267.072"/>
<path class="l4" d="M643.355 267.072L655.396 267.072"/>
<path class="l4" d="M854.061 375.435L866.102 375.435"/>
<path class="l4" d="M854.061 423.597L866.102 423.597"/>
<path class="l4" d="M781.819 399.516L854.061 363.395"/>
<path class="l4" d="M854.061 363.395L854.061 435.637"/>
<path class="l4" d="M781.819 399.516L854.061 435.637"/>
<path class="l4" d="M829.981 363.395L829.981 375.435"/>
<path class="l4" d="M829.981 423.597L829.981 435.637"/>
<path class="l4" d="M805.9 411.556L805.9 435.637"/>
<path class="l4" d="M769.779 387.476L805.9 387.476"/>
<path class="l4" d="M769.779 411.556L805.9 411.556"/>
<path class="l4" d="M498.871 218.911L498.871 230.951"/>
<path class="l4" d="M492.851 218.911L504.891 218.911"/>
<path class="l4" d="M559.073 218.911L559.073 230.951"/>
<path class="l4" d="M553.053 218.911L565.093 218.911"/>
<path class="l4" d="M528.972 303.193L528.972 310.718"/>
<path class="l4" d="M525.962 310.718L531.982 310.718"/>
<path class="l4" d="M528.972 313.728L531.982 310.718"/>
<path class="l4" d="M525.962 310.718L528.972 313.728"/>
<path class="l4" d="M848.041 267.072L848.041 274.597"/>
<path class="l4" d="M845.031 274.597L851.051 274.597"/>
<path class="l4" d="M848.041 277.607L851.051 274.597"/>
<path class="l4" d="M845.031 274.597L848.041 277.607"/>
<path class="l4" d="M829.981 435.637L829.981 443.162"/>
<path class="l4" d="M826.971 443.162L832.991 443.162"/>
<path class="l4" d="M829.981 446.172L832.991 443.162"/>
<path class="l4" d="M826.971 443.162L829.981 446.172"/>
<path class="l4" d="M528.972 423.597L528.972 431.122"/>
<path class="l4" d="M525.962 431.122L531.982 431.122"/>
<path class="l4" d="M528.972 434.132L531.982 431.122"/>
<path class="l4" d="M525.962 431.122L528.972 434.132"/>
<path class="l4" d="M498.871 339.314L498.871 351.355"/>
<path class="l4" d="M492.851 339.314L504.891 339.314"/>
<path class="l4" d="M829.981 351.355L829.981 363.395"/>
<path class="l4" d="M823.96 351.355L836.001 351.355"/>
<path class="l5" d="M74.4492 236.971L77.4593 236.971"/>
<path class="l5" d="M74.4492 236.971L72.1916 233.961L66.924 233.961L69.1815 236.971L66.924 239.981L72.1916 239.981L74.4492 236.971"/>
<path class="l5" d="M76.7067 236.219L78.2118 236.219L78.2118 237.724L76.7067 237.724L76.7067 236.219z"/>
<path class="l5" d="M258.064 273.092L263.332 273.092"/>
<path class="l5" d="M268.6 273.092L266.342 270.082L261.074 270.082L263.332 273.092L261.074 276.102L266.342 276.102L268.6 273.092"/>
<path class="l5" d="M257.312 272.34L258.817 272.34L258.817 273.845L257.312 273.845L257.312 272.34z"/>
<path class="l5" d="M123.739 459.718L125.621 459.718"/>
<path class="l5" d="M117.343 456.708L115.085 459.718L117.343 462.728L121.482 462.728L123.739 459.718L121.482 456.708L117.343 456.708"/>
<path class="l5" d="M124.868 458.965L126.373 458.965L126.373 460.47L124.868 460.47L124.868 458.965z"/>
<path class="l5" d="M123.739 441.657L125.621 441.657"/>
<path class="l5" d="M117.343 438.647L115.085 441.657L117.343 444.667L121.482 444.667L123.739 441.657L121.482 438.647L117.343 438.647"/>
<path class="l5" d="M124.868 440.905L126.373 440.905L126.373 442.41L124.868 442.41L124.868 440.905z"/>
<path class="l5" d="M123.739 423.597L125.621 423.597"/>
<path class="l5" d="M117.343 420.587L115.085 423.597L117.343 426.607L121.482 426.607L123.739 423.597L121.482 420.587L117.343 420.587"/>
<path class="l5" d="M124.868 422.844L126.373 422.844L126.373 424.349L124.868 424.349L124.868 422.844z"/>
<path class="l5" d="M74.4492 249.012L77.4593 249.012"/>
<path class="l5" d="M74.4492 249.012L72.1916 246.002L66.924 246.002L69.1815 249.012L66.924 252.022L72.1916 252.022L74.4492 249.012"/>
<path class="l5" d="M76.7067 248.259L78.2118 248.259L78.2118 249.764L76.7067 249.764L76.7067 248.259z"/>
<path class="l5" d="M232.102 423.597L233.984 423.597"/>
<path class="l5" d="M225.706 420.587L223.448 423.597L225.706 426.607L229.845 426.607L232.102 423.597L229.845 420.587L225.706 420.587"/>
<path class="l5" d="M233.231 422.844L234.736 422.844L234.736 424.349L233.231 424.349L233.231 422.844z"/>
<path class="l5" d="M258.064 285.133L263.332 285.133"/>
<path class="l5" d="M268.6 285.133L266.342 282.123L261.074 282.123L263.332 285.133L261.074 288.143L266.342 288.143L268.6 285.133"/>
<path class="l5" d="M257.312 284.38L258.817 284.38L258.817 285.885L257.312 285.885L257.312 284.38z"/>
<path class="l5" d="M258.064 297.173L263.332 297.173"/>
<path class="l5" d="M268.6 297.173L266.342 294.163L261.074 294.163L263.332 297.173L261.074 300.183L266.342 300.183L268.6 297.173"/>
<path class="l5" d="M257.312 296.42L258.817 296.42L258.817 297.926L257.312 297.926L257.312 296.42z"/>
<path class="l5" d="M74.4492 261.052L77.4593 261.052"/>
<path class="l5" d="M74.4492 261.052L72.1916 258.042L66.924 258.042L69.1815 261.052L66.924 264.062L72.1916 264.062L74.4492 261.052"/>
<path class="l5" d="M76.7067 260.299L78.2118 260.299L78.2118 261.804L76.7067 261.804L76.7067 260.299z"/>
<path class="l5" d="M74.4492 273.092L77.4593 273.092"/>
<path class="l5" d="M74.4492 273.092L72.1916 270.082L66.924 270.082L69.1815 273.092L66.924 276.102L72.1916 276.102L74.4492 273.092"/>
<path class="l5" d="M76.7067 272.34L78.2118 272.34L78.2118 273.845L76.7067 273.845L76.7067 272.34z"/>
<path class="l5" d="M74.4492 285.133L77.4593 285.133"/>
<path class="l5" d="M74.4492 285.133L72.1916 282.123L66.924 282.123L69.1815 285.133L66.924 288.143L72.1916 288.143L74.4492 285.133"/>
<path class="l5" d="M76.7067 284.38L78.2118 284.38L78.2118 285.885L76.7067 285.885L76.7067 284.38z"/>
<path class="l5" d="M256.559 235.466L259.569 235.466L259.569 238.476L256.559 238.476L256.559 235.466z"/>
<path class="l5" d="M75.9542 235.466L78.9643 235.466L78.9643 238.476L75.9542 238.476L75.9542 235.466z"/>
<path class="l5" d="M256.559 271.587L259.569 271.587L259.569 274.597L256.559 274.597L256.559 271.587z"/>
<path class="l5" d="M256.559 247.507L259.569 247.507L259.569 250.517L256.559 250.517L256.559 247.507z"/>
<path class="l5" d="M75.9542 247.507L78.9643 247.507L78.9643 250.517L75.9542 250.517L75.9542 247.507z"/>
<path class="l5" d="M256.559 283.628L259.569 283.628L259.569 286.638L256.559 286.638L256.559 283.628z"/>
<path class="l5" d="M256.559 295.668L259.569 295.668L259.569 298.678L256.559 298.678L256.559 295.668z"/>
<path class="l5" d="M75.9542 259.547L78.9643 259.547L78.9643 262.557L75.9542 262.557L75.9542 259.547z"/>
<path class="l5" d="M75.9542 271.587L78.9643 271.587L78.9643 274.597L75.9542 274.597L75.9542 271.587z"/>
<path class="l5" d="M75.9542 283.628L78.9643 283.628L78.9643 286.638L75.9542 286.638L75.9542 283.628z"/>
<path class="l5" d="M75.9542 295.668L78.9643 295.668L78.9643 298.678L75.9542 298.678L75.9542 295.668z"/>
<path class="l5" d="M256.559 307.708L259.569 307.708L259.569 310.718L256.559 310.718L256.559 307.708z"/>
<path class="l5" d="M256.559 319.749L259.569 319.749L259.569 322.759L256.559 322.759L256.559 319.749z"/>
<path class="l5" d="M227.211 446.925L228.716 446.925L228.716 448.43L227.211 448.43L227.211 446.925z"/>
<path class="l5" d="M769.026 410.804L770.531 410.804L770.531 412.309L769.026 412.309L769.026 410.804z"/>
<path class="l5" d="M221.943 516.909L221.755 517.097L221.567 517.285L221.379 517.474L221.191 517.662L221.003 517.85L220.815 518.038L220.626 518.226L220.438 518.414L220.25 518.602L220.062 518.791L219.874 518.979L219.686 519.167L219.498 519.355L219.31 519.543L219.121 519.731L218.933 519.919L218.745 520.107L218.557 520.296L218.369 520.484L218.181 520.672L217.993 520.86L217.804 521.048L217.616 521.236L217.428 521.424L217.24 521.612L217.052 521.801L216.864 521.989L216.676 522.177L216.488 522.365L216.299 522.553L216.111 522.741L215.923 522.929L215.923 522.929L215.741 523.118L215.57 523.306L215.412 523.494L215.265 523.682L215.13 523.87L215.006 524.058L214.894 524.246L214.794 524.434L214.706 524.623L214.63 524.811L214.565 524.999L214.512 525.187L214.471 525.375L214.442 525.563L214.424 525.751L214.418 525.939L214.424 526.128L214.442 526.316L214.471 526.504L214.512 526.692L214.565 526.88L214.63 527.068L214.706 527.256L214.794 527.445L214.894 527.633L215.006 527.821L215.13 528.009L215.265 528.197L215.412 528.385L215.57 528.573L215.741 528.761L215.923 528.95L215.923 528.95L216.112 529.138L216.302 529.329L216.494 529.521L216.687 529.714L216.882 529.909L217.078 530.105L217.276 530.302L217.475 530.502L217.676 530.702L217.878 530.904L218.082 531.108L218.287 531.313L218.493 531.519L218.701 531.727L218.911 531.937L219.121 532.148L219.334 532.36L219.548 532.574L219.763 532.789L219.98 533.006L220.198 533.224L220.418 533.444L220.639 533.665L220.862 533.888L221.086 534.112L221.311 534.338L221.538 534.565L221.767 534.793L221.997 535.023L222.229 535.255L222.461 535.488L222.696 535.722L222.696 535.722L222.93 535.956L223.16 536.187L223.388 536.415L223.613 536.639L223.835 536.861L224.054 537.08L224.27 537.296L224.483 537.51L224.693 537.72L224.901 537.927L225.105 538.131L225.306 538.333L225.505 538.531L225.7 538.726L225.893 538.919L226.082 539.109L226.269 539.295L226.453 539.479L226.633 539.66L226.811 539.838L226.986 540.013L227.158 540.184L227.327 540.354L227.493 540.52L227.656 540.683L227.817 540.843L227.974 541L228.128 541.155L228.28 541.306L228.428 541.454L228.573 541.6L228.716 541.742L228.716 541.742L228.853 541.881L228.981 542.016L229.1 542.146L229.21 542.272L229.311 542.393L229.404 542.51L229.488 542.622L229.563 542.73L229.629 542.834L229.686 542.933L229.735 543.028L229.774 543.118L229.805 543.204L229.827 543.286L229.84 543.363L229.845 543.436L229.84 543.504L229.827 543.568L229.805 543.627L229.774 543.683L229.735 543.733L229.686 543.78L229.629 543.821L229.563 543.859L229.488 543.892L229.404 543.921L229.311 543.945L229.21 543.965L229.1 543.98L228.981 543.991L228.853 543.998L228.716 544L228.716 544L228.575 544L228.434 544L228.293 544L228.152 544L228.011 544L227.869 544L227.728 544L227.587 544L227.446 544L227.305 544L227.164 544L227.023 544L226.882 544L226.741 544L226.6 544L226.458 544L226.317 544L226.176 544L226.035 544L225.894 544L225.753 544L225.612 544L225.471 544L225.33 544L225.189 544L225.048 544L224.906 544L224.765 544L224.624 544L224.483 544L224.342 544L224.201 544L224.201 544L224.061 544L223.922 544L223.784 544L223.648 544L223.514 544L223.381 544L223.249 544L223.119 544L222.991 544L222.863 544L222.738 544L222.614 544L222.491 544L222.37 544L222.25 544L222.131 544L222.015 544L221.899 544L221.785 544L221.673 544L221.562 544L221.452 544L221.344 544L221.238 544L221.133 544L221.029 544L220.927 544L220.826 544L220.727 544L220.629 544L220.533 544L220.438 544L220.438 544L220.344 543.999L220.25 543.994L220.156 543.987L220.062 543.976L219.968 543.963L219.874 543.947L219.78 543.928L219.686 543.906L219.592 543.881L219.498 543.853L219.404 543.822L219.31 543.788L219.215 543.752L219.121 543.712L219.027 543.669L218.933 543.624L218.839 543.575L218.745 543.524L218.651 543.469L218.557 543.412L218.463 543.352L218.369 543.289L218.275 543.222L218.181 543.153L218.087 543.081L217.993 543.006L217.899 542.929L217.804 542.848L217.71 542.764L217.616 542.677L217.522 542.588L217.428 542.495L217.428 542.495L217.334 542.401L217.24 542.307L217.146 542.213L217.052 542.119L216.958 542.025L216.864 541.931L216.77 541.837L216.676 541.742L216.582 541.648L216.488 541.554L216.394 541.46L216.299 541.366L216.205 541.272L216.111 541.178L216.017 541.084L215.923 540.99L215.829 540.896L215.735 540.802L215.641 540.708L215.547 540.614L215.453 540.52L215.359 540.426L215.265 540.331L215.171 540.237L215.077 540.143L214.983 540.049L214.888 539.955L214.794 539.861L214.7 539.767L214.606 539.673L214.512 539.579L214.418 539.485L214.418 539.485L214.323 539.389L214.224 539.291L214.123 539.189L214.018 539.085L213.911 538.978L213.801 538.868L213.688 538.754L213.572 538.638L213.453 538.519L213.331 538.397L213.206 538.272L213.078 538.144L212.947 538.014L212.813 537.88L212.676 537.743L212.537 537.604L212.394 537.461L212.249 537.315L212.1 537.167L211.949 537.016L211.795 536.861L211.637 536.704L211.477 536.544L211.314 536.381L211.148 536.215L210.979 536.046L210.807 535.874L210.632 535.699L210.454 535.521L210.273 535.34L210.09 535.156L209.903 534.97L209.903 534.97L209.715 534.787L209.527 534.617L209.339 534.458L209.151 534.311L208.962 534.176L208.774 534.053L208.586 533.941L208.398 533.841L208.21 533.753L208.022 533.676L207.834 533.612L207.645 533.559L207.457 533.518L207.269 533.488L207.081 533.471L206.893 533.465L206.705 533.471L206.517 533.488L206.329 533.518L206.14 533.559L205.952 533.612L205.764 533.676L205.576 533.753L205.388 533.841L205.2 533.941L205.012 534.053L204.824 534.176L204.635 534.311L204.447 534.458L204.259 534.617L204.071 534.787L203.883 534.97L203.883 534.97L203.696 535.156L203.512 535.34L203.332 535.521L203.154 535.699L202.979 535.874L202.807 536.046L202.638 536.215L202.472 536.381L202.309 536.544L202.149 536.704L201.991 536.861L201.837 537.016L201.686 537.167L201.537 537.315L201.392 537.461L201.249 537.604L201.109 537.743L200.973 537.88L200.839 538.014L200.708 538.144L200.58 538.272L200.455 538.397L200.333 538.519L200.214 538.638L200.098 538.754L199.985 538.868L199.875 538.978L199.768 539.085L199.663 539.189L199.562 539.291L199.463 539.389L199.368 539.485L199.368 539.485L199.274 539.579L199.18 539.673L199.086 539.767L198.991 539.861L198.897 539.955L198.803 540.049L198.709 540.143L198.615 540.237L198.521 540.331L198.427 540.426L198.333 540.52L198.239 540.614L198.145 540.708L198.051 540.802L197.957 540.896L197.863 540.99L197.769 541.084L197.675 541.178L197.58 541.272L197.486 541.366L197.392 541.46L197.298 541.554L197.204 541.648L197.11 541.742L197.016 541.837L196.922 541.931L196.828 542.025L196.734 542.119L196.64 542.213L196.546 542.307L196.452 542.401L196.358 542.495L196.358 542.495L196.264 542.588L196.17 542.677L196.075 542.764L195.981 542.848L195.887 542.929L195.793 543.006L195.699 543.081L195.605 543.153L195.511 543.222L195.417 543.289L195.323 543.352L195.229 543.412L195.135 543.469L195.041 543.524L194.947 543.575L194.853 543.624L194.759 543.669L194.664 543.712L194.57 543.752L194.476 543.788L194.382 543.822L194.288 543.853L194.194 543.881L194.1 543.906L194.006 543.928L193.912 543.947L193.818 543.963L193.724 543.976L193.63 543.987L193.536 543.994L193.442 543.999L193.348 544L193.348 544L193.253 544L193.156 544L193.059 544L192.96 544L192.859 544L192.757 544L192.653 544L192.548 544L192.441 544L192.333 544L192.224 544L192.113 544L192.001 544L191.887 544L191.771 544L191.654 544L191.536 544L191.416 544L191.295 544L191.172 544L191.048 544L190.922 544L190.795 544L190.667 544L190.537 544L190.405 544L190.272 544L190.138 544L190.002 544L189.864 544L189.725 544L189.585 544L189.585 544L189.444 544L189.303 544L189.162 544L189.021 544L188.879 544L188.738 544L188.597 544L188.456 544L188.315 544L188.174 544L188.033 544L187.892 544L187.751 544L187.61 544L187.468 544L187.327 544L187.186 544L187.045 544L186.904 544L186.763 544L186.622 544L186.481 544L186.34 544L186.199 544L186.058 544L185.916 544L185.775 544L185.634 544L185.493 544L185.352 544L185.211 544L185.07 544L185.07 544L184.933 543.998L184.805 543.991L184.686 543.98L184.576 543.965L184.475 543.945L184.382 543.921L184.298 543.892L184.223 543.859L184.157 543.821L184.1 543.78L184.051 543.733L184.012 543.683L183.981 543.627L183.959 543.568L183.945 543.504L183.941 543.436L183.945 543.363L183.959 543.286L183.981 543.204L184.012 543.118L184.051 543.028L184.1 542.933L184.157 542.834L184.223 542.73L184.298 542.622L184.382 542.51L184.475 542.393L184.576 542.272L184.686 542.146L184.805 542.016L184.933 541.881L185.07 541.742L185.07 541.742L185.212 541.6L185.358 541.454L185.506 541.306L185.658 541.155L185.812 541L185.969 540.843L186.13 540.683L186.293 540.52L186.459 540.354L186.628 540.184L186.8 540.013L186.975 539.838L187.152 539.66L187.333 539.479L187.517 539.295L187.704 539.109L187.893 538.919L188.086 538.726L188.281 538.531L188.48 538.333L188.681 538.131L188.885 537.927L189.093 537.72L189.303 537.51L189.516 537.296L189.732 537.08L189.951 536.861L190.173 536.639L190.398 536.415L190.626 536.187L190.856 535.956L191.09 535.722L191.09 535.722L191.324 535.488L191.557 535.255L191.789 535.023L192.019 534.793L192.247 534.565L192.475 534.338L192.7 534.112L192.924 533.888L193.147 533.665L193.368 533.444L193.588 533.224L193.806 533.006L194.023 532.789L194.238 532.574L194.452 532.36L194.664 532.148L194.875 531.937L195.085 531.727L195.293 531.519L195.499 531.313L195.704 531.108L195.908 530.904L196.11 530.702L196.311 530.502L196.51 530.302L196.707 530.105L196.904 529.909L197.098 529.714L197.292 529.521L197.483 529.329L197.674 529.138L197.863 528.95L197.863 528.95L198.045 528.761L198.215 528.573L198.374 528.385L198.521 528.197L198.656 528.009L198.78 527.821L198.892 527.633L198.991 527.445L199.08 527.256L199.156 527.068L199.221 526.88L199.274 526.692L199.315 526.504L199.344 526.316L199.362 526.128L199.368 525.939L199.362 525.751L199.344 525.563L199.315 525.375L199.274 525.187L199.221 524.999L199.156 524.811L199.08 524.623L198.991 524.434L198.892 524.246L198.78 524.058L198.656 523.87L198.521 523.682L198.374 523.494L198.215 523.306L198.045 523.118L197.863 522.929L197.863 522.929L197.674 522.741L197.483 522.55L197.292 522.358L197.098 522.165L196.904 521.97L196.707 521.774L196.51 521.576L196.311 521.377L196.11 521.177L195.908 520.975L195.704 520.771L195.499 520.566L195.293 520.36L195.085 520.152L194.875 519.942L194.664 519.731L194.452 519.519L194.238 519.305L194.023 519.09L193.806 518.873L193.588 518.655L193.368 518.435L193.147 518.214L192.924 517.991L192.7 517.767L192.475 517.541L192.247 517.314L192.019 517.086L191.789 516.856L191.557 516.624L191.324 516.391L191.09 516.157L191.09 516.157L190.856 515.923L190.626 515.692L190.398 515.464L190.173 515.24L189.951 515.018L189.732 514.799L189.516 514.583L189.303 514.369L189.093 514.159L188.885 513.952L188.681 513.748L188.48 513.546L188.281 513.348L188.086 513.153L187.893 512.96L187.704 512.77L187.517 512.584L187.333 512.4L187.152 512.219L186.975 512.041L186.8 511.866L186.628 511.694L186.459 511.525L186.293 511.359L186.13 511.196L185.969 511.036L185.812 510.879L185.658 510.724L185.506 510.573L185.358 510.425L185.212 510.279L185.07 510.137L185.07 510.137L184.933 509.998L184.805 509.863L184.686 509.733L184.576 509.607L184.475 509.486L184.382 509.369L184.298 509.257L184.223 509.149L184.157 509.045L184.1 508.946L184.051 508.851L184.012 508.761L183.981 508.675L183.959 508.593L183.945 508.516L183.941 508.443L183.945 508.375L183.959 508.311L183.981 508.252L184.012 508.196L184.051 508.146L184.1 508.099L184.157 508.058L184.223 508.02L184.298 507.987L184.382 507.958L184.475 507.934L184.576 507.914L184.686 507.899L184.805 507.888L184.933 507.881L185.07 507.879L185.07 507.879L185.211 507.879L185.352 507.879L185.493 507.879L185.634 507.879L185.775 507.879L185.916 507.879L186.058 507.879L186.199 507.879L186.34 507.879L186.481 507.879L186.622 507.879L186.763 507.879L186.904 507.879L187.045 507.879L187.186 507.879L187.327 507.879L187.468 507.879L187.61 507.879L187.751 507.879L187.892 507.879L188.033 507.879L188.174 507.879L188.315 507.879L188.456 507.879L188.597 507.879L188.738 507.879L188.879 507.879L189.021 507.879L189.162 507.879L189.303 507.879L189.444 507.879L189.585 507.879L189.585 507.879L189.725 507.879L189.864 507.879L190.002 507.879L190.138 507.879L190.272 507.879L190.405 507.879L190.537 507.879L190.667 507.879L190.795 507.879L190.922 507.879L191.048 507.879L191.172 507.879L191.295 507.879L191.416 507.879L191.536 507.879L191.654 507.879L191.771 507.879L191.887 507.879L192.001 507.879L192.113 507.879L192.224 507.879L192.333 507.879L192.441 507.879L192.548 507.879L192.653 507.879L192.757 507.879L192.859 507.879L192.96 507.879L193.059 507.879L193.156 507.879L193.253 507.879L193.348 507.879L193.348 507.879L193.442 507.88L193.536 507.885L193.63 507.892L193.724 507.902L193.818 507.916L193.912 507.932L194.006 507.951L194.1 507.973L194.194 507.998L194.288 508.026L194.382 508.057L194.476 508.091L194.57 508.127L194.664 508.167L194.759 508.21L194.853 508.255L194.947 508.304L195.041 508.355L195.135 508.41L195.229 508.467L195.323 508.527L195.417 508.59L195.511 508.656L195.605 508.726L195.699 508.798L195.793 508.873L195.887 508.95L195.981 509.031L196.075 509.115L196.17 509.202L196.264 509.291L196.358 509.384L196.358 509.384L196.452 509.478L196.546 509.572L196.64 509.666L196.734 509.76L196.828 509.854L196.922 509.948L197.016 510.042L197.11 510.137L197.204 510.231L197.298 510.325L197.392 510.419L197.486 510.513L197.58 510.607L197.675 510.701L197.769 510.795L197.863 510.889L197.957 510.983L198.051 511.077L198.145 511.171L198.239 511.265L198.333 511.359L198.427 511.453L198.521 511.548L198.615 511.642L198.709 511.736L198.803 511.83L198.897 511.924L198.991 512.018L199.086 512.112L199.18 512.206L199.274 512.3L199.368 512.394L199.368 512.394L199.463 512.49L199.562 512.588L199.663 512.69L199.768 512.794L199.875 512.901L199.985 513.011L200.098 513.125L200.214 513.241L200.333 513.36L200.455 513.482L200.58 513.607L200.708 513.735L200.839 513.865L200.973 513.999L201.109 514.136L201.249 514.275L201.392 514.418L201.537 514.563L201.686 514.712L201.837 514.863L201.991 515.018L202.149 515.175L202.309 515.335L202.472 515.498L202.638 515.664L202.807 515.833L202.979 516.005L203.154 516.18L203.332 516.358L203.512 516.539L203.696 516.723L203.883 516.909L203.883 516.909L204.071 517.091L204.259 517.262L204.447 517.421L204.635 517.568L204.824 517.703L205.012 517.826L205.2 517.938L205.388 518.038L205.576 518.126L205.764 518.203L205.952 518.267L206.14 518.32L206.329 518.361L206.517 518.391L206.705 518.408L206.893 518.414L207.081 518.408L207.269 518.391L207.457 518.361L207.645 518.32L207.834 518.267L208.022 518.203L208.21 518.126L208.398 518.038L208.586 517.938L208.774 517.826L208.962 517.703L209.151 517.568L209.339 517.421L209.527 517.262L209.715 517.091L209.903 516.909L209.903 516.909L210.09 516.723L210.273 516.539L210.454 516.358L210.632 516.18L210.807 516.005L210.979 515.833L211.148 515.664L211.314 515.498L211.477 515.335L211.637 515.175L211.795 515.018L211.949 514.863L212.1 514.712L212.249 514.563L212.394 514.418L212.537 514.275L212.676 514.136L212.813 513.999L212.947 513.865L213.078 513.735L213.206 513.607L213.331 513.482L213.453 513.36L213.572 513.241L213.688 513.125L213.801 513.011L213.911 512.901L214.018 512.794L214.123 512.69L214.224 512.588L214.323 512.49L214.418 512.394L214.418 512.394L214.512 512.3L214.606 512.206L214.7 512.112L214.794 512.018L214.888 511.924L214.983 511.83L215.077 511.736L215.171 511.642L215.265 511.548L215.359 511.453L215.453 511.359L215.547 511.265L215.641 511.171L215.735 511.077L215.829 510.983L215.923 510.889L216.017 510.795L216.111 510.701L216.205 510.607L216.299 510.513L216.394 510.419L216.488 510.325L216.582 510.231L216.676 510.137L216.77 510.042L216.864 509.948L216.958 509.854L217.052 509.76L217.146 509.666L217.24 509.572L217.334 509.478L217.428 509.384L217.428 509.384L217.522 509.291L217.616 509.202L217.71 509.115L217.804 509.031L217.899 508.95L217.993 508.873L218.087 508.798L218.181 508.726L218.275 508.656L218.369 508.59L218.463 508.527L218.557 508.467L218.651 508.41L218.745 508.355L218.839 508.304L218.933 508.255L219.027 508.21L219.121 508.167L219.215 508.127L219.31 508.091L219.404 508.057L219.498 508.026L219.592 507.998L219.686 507.973L219.78 507.951L219.874 507.932L219.968 507.916L220.062 507.902L220.156 507.892L220.25 507.885L220.344 507.88L220.438 507.879L220.438 507.879L220.533 507.879L220.629 507.879L220.727 507.879L220.826 507.879L220.927 507.879L221.029 507.879L221.133 507.879L221.238 507.879L221.344 507.879L221.452 507.879L221.562 507.879L221.673 507.879L221.785 507.879L221.899 507.879L222.015 507.879L222.131 507.879L222.25 507.879L222.37 507.879L222.491 507.879L222.614 507.879L222.738 507.879L222.863 507.879L222.991 507.879L223.119 507.879L223.249 507.879L223.381 507.879L223.514 507.879L223.648 507.879L223.784 507.879L223.922 507.879L224.061 507.879L224.201 507.879L224.201 507.879L224.342 507.879L224.483 507.879L224.624 507.879L224.765 507.879L224.906 507.879L225.048 507.879L225.189 507.879L225.33 507.879L225.471 507.879L225.612 507.879L225.753 507.879L225.894 507.879L226.035 507.879L226.176 507.879L226.317 507.879L226.458 507.879L226.6 507.879L226.741 507.879L226.882 507.879L227.023 507.879L227.164 507.879L227.305 507.879L227.446 507.879L227.587 507.879L227.728 507.879L227.869 507.879L228.011 507.879L228.152 507.879L228.293 507.879L228.434 507.879L228.575 507.879L228.716 507.879L228.716 507.879L228.853 507.881L228.981 507.888L229.1 507.899L229.21 507.914L229.311 507.934L229.404 507.958L229.488 507.987L229.563 508.02L229.629 508.058L229.686 508.099L229.735 508.146L229.774 508.196L229.805 508.252L229.827 508.311L229.84 508.375L229.845 508.443L229.84 508.516L229.827 508.593L229.805 508.675L229.774 508.761L229.735 508.851L229.686 508.946L229.629 509.045L229.563 509.149L229.488 509.257L229.404 509.369L229.311 509.486L229.21 509.607L229.1 509.733L228.981 509.863L228.853 509.998L228.716 510.137L228.716 510.137L228.573 510.28L228.425 510.428L228.273 510.58L228.116 510.736L227.955 510.897L227.79 511.062L227.62 511.232L227.446 511.406L227.268 511.585L227.085 511.768L226.897 511.955L226.705 512.147L226.509 512.343L226.309 512.544L226.104 512.749L225.894 512.958L225.68 513.172L225.462 513.391L225.239 513.613L225.012 513.84L224.781 514.072L224.545 514.308L224.305 514.548L224.06 514.793L223.811 515.042L223.557 515.295L223.299 515.553L223.037 515.816L222.77 516.082L222.499 516.354L222.223 516.629L221.943 516.909"/>
<path class="l5" d="M557.568 229.446L560.578 229.446L560.578 232.456L557.568 232.456L557.568 229.446z"/>
<path class="l5" d="M497.366 229.446L500.376 229.446L500.376 232.456L497.366 232.456L497.366 229.446z"/>
<path class="l5" d="M587.669 265.567L590.679 265.567L590.679 268.577L587.669 268.577L587.669 265.567z"/>
<path class="l5" d="M467.265 265.567L470.275 265.567L470.275 268.577L467.265 268.577L467.265 265.567z"/>
<path class="l5" d="M527.467 301.688L530.477 301.688L530.477 304.698L527.467 304.698L527.467 301.688z"/>
<path class="l5" d="M497.366 349.849L500.376 349.849L500.376 352.86L497.366 352.86L497.366 349.849z"/>
<path class="l5" d="M467.265 385.971L470.275 385.971L470.275 388.981L467.265 388.981L467.265 385.971z"/>
<path class="l5" d="M587.669 385.971L590.679 385.971L590.679 388.981L587.669 388.981L587.669 385.971z"/>
<path class="l5" d="M527.467 422.092L530.477 422.092L530.477 425.102L527.467 425.102L527.467 422.092z"/>
<path class="l5" d="M756.234 163.224L759.244 163.224L759.244 166.234L756.234 166.234L756.234 163.224z"/>
<path class="l5" d="M936.839 205.365L939.849 205.365L939.849 208.375L936.839 208.375L936.839 205.365z"/>
<path class="l5" d="M756.234 175.265L759.244 175.265L759.244 178.275L756.234 178.275L756.234 175.265z"/>
<path class="l5" d="M756.234 187.305L759.244 187.305L759.244 190.315L756.234 190.315L756.234 187.305z"/>
<path class="l5" d="M756.234 199.345L759.244 199.345L759.244 202.355L756.234 202.355L756.234 199.345z"/>
<path class="l5" d="M756.234 211.386L759.244 211.386L759.244 214.396L756.234 214.396L756.234 211.386z"/>
<path class="l5" d="M756.234 223.426L759.244 223.426L759.244 226.436L756.234 226.436L756.234 223.426z"/>
<path class="l5" d="M756.234 235.466L759.244 235.466L759.244 238.476L756.234 238.476L756.234 235.466z"/>
<path class="l5" d="M756.234 247.507L759.244 247.507L759.244 250.517L756.234 250.517L756.234 247.507z"/>
<path class="l5" d="M846.536 265.567L849.546 265.567L849.546 268.577L846.536 268.577L846.536 265.567z"/>
<path class="l5" d="M641.85 265.567L644.86 265.567L644.86 268.577L641.85 268.577L641.85 265.567z"/>
<path class="l5" d="M690.012 265.567L693.022 265.567L693.022 268.577L690.012 268.577L690.012 265.567z"/>
<path class="l5" d="M828.476 361.89L831.486 361.89L831.486 364.9L828.476 364.9L828.476 361.89z"/>
<path class="l5" d="M864.597 373.93L867.607 373.93L867.607 376.94L864.597 376.94L864.597 373.93z"/>
<path class="l5" d="M768.274 385.971L771.284 385.971L771.284 388.981L768.274 388.981L768.274 385.971z"/>
<path class="l5" d="M864.597 422.092L867.607 422.092L867.607 425.102L864.597 425.102L864.597 422.092z"/>
<path class="l5" d="M828.476 434.132L831.486 434.132L831.486 437.142L828.476 437.142L828.476 434.132z"/>
<path class="l5" d="M804.395 434.132L807.405 434.132L807.405 437.142L804.395 437.142L804.395 434.132z"/>
<path class="l5" d="M768.274 410.051L771.284 410.051L771.284 413.061L768.274 413.061L768.274 410.051z"/>
<path class="l5" d="M727.261 164.353L728.014 164.353L728.014 165.106L727.261 165.106L727.261 164.353z"/>
<path class="l5" d="M727.261 176.393L728.014 176.393L728.014 177.146L727.261 177.146L727.261 176.393z"/>
<path class="l5" d="M727.261 188.434L728.014 188.434L728.014 189.186L727.261 189.186L727.261 188.434z"/>
<path class="l5" d="M727.261 200.474L728.014 200.474L728.014 201.227L727.261 201.227L727.261 200.474z"/>
<path class="l5" d="M727.261 212.514L728.014 212.514L728.014 213.267L727.261 213.267L727.261 212.514z"/>
<path class="l5" d="M727.261 224.555L728.014 224.555L728.014 225.307L727.261 225.307L727.261 224.555z"/>
<path class="l5" d="M727.261 236.595L728.014 236.595L728.014 237.348L727.261 237.348L727.261 236.595z"/>
<path class="l5" d="M727.261 248.635L728.014 248.635L728.014 249.388L727.261 249.388L727.261 248.635z"/>
<path class="l5" d="M690.764 266.32L692.269 266.32L692.269 267.825L690.764 267.825L690.764 266.32z"/>
<path class="l5" d="M124.868 422.844L126.373 422.844L126.373 424.349L124.868 424.349L124.868 422.844z"/>
<path class="l5" d="M877.389 374.683L878.894 374.683L878.894 376.188L877.389 376.188L877.389 374.683z"/>
<path class="l5" d="M961.672 206.118L963.177 206.118L963.177 207.623L961.672 207.623L961.672 206.118z"/>
<path class="l5" d="M227.211 446.925L228.716 446.925L228.716 448.43L227.211 448.43L227.211 446.925z"/>
<path class="l5" d="M233.231 422.844L234.736 422.844L234.736 424.349L233.231 424.349L233.231 422.844z"/>
<path class="l5" d="M455.978 386.723L457.483 386.723L457.483 388.228L455.978 388.228L455.978 386.723z"/>
<path class="l5" d="M455.978 266.32L457.483 266.32L457.483 267.825L455.978 267.825L455.978 266.32z"/>
<path class="l5" d="M588.421 266.32L589.926 266.32L589.926 267.825L588.421 267.825L588.421 266.32z"/>
<path class="l5" d="M124.868 440.905L126.373 440.905L126.373 442.41L124.868 442.41L124.868 440.905z"/>
<path class="l5" d="M124.868 458.965L126.373 458.965L126.373 460.47L124.868 460.47L124.868 458.965z"/>
<path class="l5" d="M497.366 229.446L500.376 229.446L500.376 232.456L497.366 232.456L497.366 229.446z"/>
<path class="l5" d="M557.568 229.446L560.578 229.446L560.578 232.456L557.568 232.456L557.568 229.446z"/>
<path class="l5" d="M527.467 301.688L530.477 301.688L530.477 304.698L527.467 304.698L527.467 301.688z"/>
<path class="l5" d="M257.312 248.259L258.817 248.259L258.817 249.764L257.312 249.764L257.312 248.259z"/>
<path class="l5" d="M257.312 236.219L258.817 236.219L258.817 237.724L257.312 237.724L257.312 236.219z"/>
<path class="l5" d="M846.536 265.567L849.546 265.567L849.546 268.577L846.536 268.577L846.536 265.567z"/>
<path class="l5" d="M828.476 434.132L831.486 434.132L831.486 437.142L828.476 437.142L828.476 434.132z"/>
<path class="l5" d="M527.467 422.092L530.477 422.092L530.477 425.102L527.467 425.102L527.467 422.092z"/>
<path class="l5" d="M497.366 349.849L500.376 349.849L500.376 352.86L497.366 352.86L497.366 349.849z"/>
<path class="l5" d="M828.476 361.89L831.486 361.89L831.486 364.9L828.476 364.9L828.476 361.89z"/>
<path class="l5" d="M257.312 308.461L258.817 308.461L258.817 309.966L257.312 309.966L257.312 308.461z"/>
<path class="l5" d="M257.312 320.501L258.817 320.501L258.817 322.006L257.312 322.006L257.312 320.501z"/>
<path class="l5" d="M76.7067 296.42L78.2118 296.42L78.2118 297.926L76.7067 297.926L76.7067 296.42z"/>
<path class="l5" d="M805.147 446.925L806.652 446.925L806.652 448.43L805.147 448.43L805.147 446.925z"/>
<path class="l5" d="M672.704 386.723L674.209 386.723L674.209 388.228L672.704 388.228L672.704 386.723z"/>
<path class="l6" d="M363.417 525.939L842.021 525.939"/>
<path class="l6" d="M131.641 525.939L170.772 525.939"/>
<path class="l7" d="M246.024 236.971L258.064 236.971"/>
<path class="l7" d="M246.024 249.012L258.064 249.012"/>
<path class="l7" d="M559.073 230.951L559.073 242.991"/>
<path class="l7" d="M498.871 230.951L498.871 242.991"/>
<path class="l7" d="M528.972 291.153L528.972 303.193"/>
<path class="l7" d="M498.871 351.355L498.871 363.395"/>
<path class="l7" d="M528.972 411.556L528.972 423.597"/>
<path class="l7" d="M848.041 255.032L848.041 267.072"/>
<path class="l1" d="M589.174 267.072L643.355 267.072"/>
<path class="l1" d="M691.517 267.072L721.618 267.072"/>
<path class="l1" d="M721.618 170.749L721.618 267.072"/>
<path class="l1" d="M727.638 164.729L757.739 164.729"/>
<path class="l1" d="M727.638 176.77L757.739 176.77"/>
<path class="l1" d="M727.638 188.81L757.739 188.81"/>
<path class="l1" d="M727.638 200.85L757.739 200.85"/>
<path class="l1" d="M727.638 212.891L757.739 212.891"/>
<path class="l1" d="M727.638 224.931L757.739 224.931"/>
<path class="l1" d="M727.638 236.971L757.739 236.971"/>
<path class="l1" d="M727.638 249.012L757.739 249.012"/>
<path class="l1" d="M456.73 387.476L468.77 387.476"/>
<path class="l1" d="M456.73 267.072L468.77 267.072"/>
<path class="l1" d="M866.102 375.435L878.142 375.435"/>
<path class="l1" d="M938.344 206.87L950.384 206.87"/>
<path class="l1" d="M950.384 206.87L950.384 423.597"/>
<path class="l1" d="M866.102 423.597L950.384 423.597"/>
<path class="l1" d="M589.174 387.476L769.779 387.476"/>
<path class="l1" d="M950.384 206.87L962.424 206.87"/>
<path class="l1" d="M805.9 435.637L805.9 447.677"/>
<circle class="l1" cx="950.384" cy="206.87" r="2.22746"/>
<circle class="l1" cx="950.384" cy="206.87" r="2.22746"/>
<circle class="l1" cx="950.384" cy="206.87" r="2.22746"/>
</svg>
